<?xml version="1.0" standalone="no"?>
<!DOCTYPE svg PUBLIC "-//W3C//DTD SVG 20010904//EN"
 "http://www.w3.org/TR/2001/REC-SVG-20010904/DTD/svg10.dtd">
<svg version="1.0" xmlns="http://www.w3.org/2000/svg"
 width="228.000000pt" height="228.000000pt" viewBox="0 0 228.000000 228.000000"
 preserveAspectRatio="xMidYMid meet">
<metadata>
Created by potrace 1.11, written by Peter Selinger 2001-2013
</metadata>
<g transform="translate(0.000000,228.000000) scale(0.100000,-0.100000)"
fill="#000000" stroke="none">
<path d="M660 1519 c-127 -22 -250 -110 -304 -218 -41 -80 -56 -154 -56 -276
0 -127 15 -197 62 -287 84 -162 307 -229 576 -173 74 15 97 17 112 7 11 -7 24
-12 30 -12 6 0 10 57 10 155 0 92 -4 155 -10 155 -5 0 -25 -32 -45 -71 -107
-214 -257 -280 -366 -162 -35 37 -64 97 -77 159 -30 142 -23 438 14 552 36
112 130 171 226 143 59 -18 133 -96 183 -193 60 -117 69 -107 62 63 -3 77 -7
143 -10 145 -3 3 -14 0 -26 -7 -17 -11 -35 -10 -103 4 -109 22 -210 28 -278
16z"/>
<path d="M1560 1519 c-85 -14 -191 -71 -246 -132 -82 -91 -118 -201 -118 -362
0 -120 14 -187 56 -272 53 -109 140 -169 288 -199 96 -19 173 -15 290 16 90
24 120 25 146 5 10 -8 27 -15 37 -15 16 0 17 12 11 190 l-7 190 31 0 c25 0 32
4 32 20 0 19 -7 20 -200 20 -193 0 -200 -1 -200 -20 0 -17 7 -20 46 -20 l46 0
-4 -161 c-3 -155 -4 -161 -27 -180 -31 -25 -106 -25 -148 0 -39 24 -80 92
-101 168 -13 45 -16 106 -17 273 0 197 2 221 23 288 46 147 144 204 258 150
51 -23 108 -89 169 -194 58 -99 66 -89 58 79 -3 78 -7 144 -10 146 -2 3 -9 -1
-15 -7 -16 -16 -53 -15 -130 2 -86 20 -202 27 -268 15z"/>
</g>
</svg>
