<?xml version="1.0" encoding="UTF-8"?>
<svg xmlns="http://www.w3.org/2000/svg" xmlns:xlink="http://www.w3.org/1999/xlink" version="1.2" >
<font id="Everglow">
<font-face  font-family="Everglow" units-per-em="1000" ascent="750" descent="-250" font-style="normal" font-weight="400" font-stretch="normal" cap-height="753" x-height="482" underline-position="-75" underline-thickness="50" />
<missing-glyph  horiz-adv-x="200" d="" />
<glyph glyph-name="NULL" d="" />
<glyph glyph-name="CR" unicode="&#xd;" horiz-adv-x="200" d="" />
<glyph glyph-name="space" unicode="&#x20;" horiz-adv-x="200" d="" />
<glyph glyph-name="exclam" unicode="&#x21;" horiz-adv-x="271" d="M364 623 C378 670 371 728 281 746 C265 621 139 327 127 247 C114 182 159 153 202 154 C194 172 193 185 197 208 C216 335 328 501 364 623 L364 623 Z M134 135 C164 135 184 104 177 67 C173 30 144 0 112 0 C82 0 62 30 68 67 C73 104 102 135 134 135 L134 135 Z " />
<glyph glyph-name="quotedbl" unicode="&#x22;" horiz-adv-x="311" d="M321 746 C295 746 271 725 267 700 C263 681 270 666 283 657 C288 625 260 598 233 589 C332 547 411 746 321 746 L321 746 Z M214 746 C190 746 166 725 160 700 C158 681 163 666 178 657 C181 625 155 598 126 589 C224 547 304 746 214 746 L214 746 Z " />
<glyph glyph-name="numbersign" unicode="&#x23;" horiz-adv-x="744" d="M684 326 C706 323 718 319 733 308 C746 348 729 385 672 399 C654 401 622 400 581 397 C590 418 597 439 604 456 C613 484 636 545 547 563 C541 524 519 460 494 389 C465 387 436 384 407 380 C419 409 427 434 435 456 C445 484 468 545 380 563 C373 521 348 450 319 373 C240 365 165 361 126 364 C121 274 185 280 215 282 C236 283 260 286 289 290 C278 262 267 235 258 210 C185 203 121 199 84 202 C77 112 141 118 171 119 C188 120 207 124 228 126 C216 90 207 62 205 44 C203 -15 235 -40 277 -39 C269 -21 268 -9 272 12 C278 48 290 91 306 137 C338 141 371 146 404 150 C388 104 375 65 373 44 C371 -15 402 -40 444 -39 C437 -21 436 -9 439 12 C446 56 461 107 483 160 C541 166 597 170 640 164 C663 161 674 158 690 146 C701 186 686 223 628 237 C606 239 564 237 511 233 C524 265 538 295 551 325 C600 329 647 330 684 326 L684 326 Z M432 226 C401 223 368 219 337 215 C349 245 361 274 373 302 C403 307 435 311 466 315 C455 284 443 254 432 226 L432 226 Z " />
<glyph glyph-name="dollar" unicode="&#x24;" horiz-adv-x="616" d="M576 724 C589 757 600 804 536 827 C531 805 519 776 505 742 C411 754 285 733 259 662 C235 596 285 491 331 379 C270 251 212 122 188 28 C120 89 179 249 263 278 C151 368 43 251 50 138 C55 51 109 0 176 -24 C170 -73 177 -106 206 -115 C204 -98 208 -72 219 -37 C243 -42 268 -44 292 -44 C419 -44 523 19 528 143 C531 238 483 354 443 454 C493 552 536 638 560 688 C565 686 568 685 572 683 C573 657 566 636 560 613 C539 547 532 549 590 497 C629 572 697 668 576 724 L576 724 Z M396 134 C394 59 342 4 260 4 C251 4 241 5 234 6 C263 86 312 191 363 297 C383 241 397 185 396 134 L396 134 Z M411 541 C394 589 386 630 395 660 C406 692 445 700 486 699 C464 652 438 598 411 541 L411 541 Z " />
<glyph glyph-name="percent" unicode="&#x25;" horiz-adv-x="667" d="M185 335 C357 344 508 746 380 746 C350 746 306 729 270 684 C266 685 263 686 259 686 C186 681 -1 325 185 335 L185 335 Z M310 654 C304 661 297 667 290 673 C299 687 344 724 363 708 C406 667 263 353 177 355 C113 355 254 653 310 654 L310 654 Z M628 636 C645 662 689 730 590 746 C521 576 217 173 166 39 C152 7 153 -42 209 -40 C205 -23 206 -12 213 9 C257 125 562 527 628 636 L628 636 Z M612 371 C583 371 538 355 503 308 C499 311 495 311 492 311 C419 305 232 -50 418 -39 C589 -31 741 371 612 371 L612 371 Z M410 -21 C346 -20 486 277 543 279 C537 287 530 292 523 298 C532 311 576 350 595 332 C639 293 496 -22 410 -21 L410 -21 Z " />
<glyph glyph-name="ampersand" unicode="&#x26;" horiz-adv-x="845" d="M638 533 C695 629 697 746 513 746 C301 745 196 587 292 385 C-20 187 104 -44 305 -40 C394 -39 440 -12 491 25 C507 -18 508 -75 504 -88 C590 -44 596 17 567 86 C600 120 751 306 583 347 C613 279 542 165 532 158 C475 296 222 692 507 700 C620 703 585 561 524 514 C489 503 449 479 441 462 C432 441 476 404 510 398 C533 395 564 429 578 453 C655 466 755 438 792 385 C849 508 756 542 638 533 L638 533 Z M466 84 C433 46 371 1 300 2 C188 3 168 153 337 298 C364 268 420 163 466 84 L466 84 Z " />
<glyph glyph-name="quotesingle" unicode="&#x27;" horiz-adv-x="220" d="M225 746 C200 746 174 724 168 698 C166 678 171 662 187 652 C190 618 163 590 132 580 C236 536 320 746 225 746 L225 746 Z " />
<glyph glyph-name="parenleft" unicode="&#x28;" horiz-adv-x="321" d="M531 700 C480 730 437 748 411 745 C238 722 -62 44 174 -40 C80 203 412 705 531 700 L531 700 Z " />
<glyph glyph-name="parenright" unicode="&#x29;" horiz-adv-x="362" d="M398 692 C382 713 338 732 281 746 C368 665 247 77 8 -28 C234 -135 503 553 398 692 L398 692 Z " />
<glyph glyph-name="asterisk" unicode="&#x2a;" horiz-adv-x="407" d="M456 525 C430 524 385 526 341 531 C354 550 368 567 379 585 C392 599 403 636 355 659 C345 639 322 604 296 568 C283 610 270 647 265 671 C212 661 215 621 223 606 C229 585 237 563 248 538 C209 544 178 545 162 544 C128 535 117 503 125 480 C134 485 142 488 152 489 C179 493 209 491 239 488 C219 455 199 429 192 414 C182 382 205 357 229 350 C229 361 230 367 234 379 C247 405 264 433 283 459 C294 427 307 397 310 370 C312 359 312 350 307 338 C333 338 361 359 359 391 C356 406 347 440 334 474 C356 471 382 468 403 465 C422 464 459 473 456 525 L456 525 Z " />
<glyph glyph-name="plus" unicode="&#x2b;" horiz-adv-x="577" d="M517 419 C496 423 444 422 384 421 C399 458 414 492 424 520 C430 540 441 592 375 604 C369 567 341 493 313 419 C232 415 150 414 111 420 C102 353 151 343 173 343 C204 342 245 345 287 348 C265 291 248 242 245 219 C244 176 275 151 305 152 C300 165 299 175 302 191 C309 236 330 295 355 353 C418 358 480 360 524 351 C541 347 549 344 560 336 C571 364 560 405 517 419 L517 419 Z " />
<glyph glyph-name="comma" unicode="&#x2c;" horiz-adv-x="214" d="M114 135 C89 135 63 113 57 87 C55 67 60 51 76 41 C79 7 52 -21 21 -31 C125 -75 209 135 114 135 L114 135 Z " />
<glyph glyph-name="hyphen" unicode="&#x2d;" horiz-adv-x="498" d="M444 417 C400 429 188 406 124 418 C117 348 155 336 172 336 C247 335 377 363 451 344 C465 342 470 339 478 328 C487 359 478 403 444 417 L444 417 Z " />
<glyph glyph-name="period" unicode="&#x2e;" horiz-adv-x="197" d="M106 135 C74 135 45 104 40 67 C34 30 54 0 84 0 C116 0 145 30 149 67 C156 104 136 135 106 135 L106 135 Z " />
<glyph glyph-name="slash" unicode="&#x2f;" horiz-adv-x="318" d="M410 823 C357 629 -124 -123 65 -154 C37 -47 389 535 458 680 C474 712 506 792 410 823 L410 823 Z " />
<glyph glyph-name="zero" unicode="0" horiz-adv-x="601" d="M560 746 C503 746 419 714 351 626 C344 630 335 631 329 631 C191 621 -166 -57 189 -38 C516 -21 805 746 560 746 L560 746 Z M173 -2 C50 1 318 567 428 570 C416 584 401 595 389 605 C407 632 491 704 526 672 C608 596 336 -5 173 -2 L173 -2 Z " />
<glyph glyph-name="one" unicode="1" horiz-adv-x="328" d="M326 746 C273 703 221 669 186 655 C155 642 124 638 96 647 C88 582 127 545 185 568 C210 577 242 600 281 633 C221 486 146 298 100 164 C83 113 72 77 72 63 C70 -5 127 -41 175 -39 C167 -19 166 -5 170 20 C171 30 179 59 194 100 C242 234 327 442 388 588 C436 698 405 676 326 746 L326 746 Z " />
<glyph glyph-name="two" unicode="2" horiz-adv-x="503" d="M364 136 C269 152 165 104 77 71 C771 559 669 740 424 746 C170 752 66 508 266 485 C225 596 353 702 434 695 C517 688 554 542 -24 73 C-33 65 -40 58 -41 51 C-46 30 -20 -4 -16 -29 C159 27 314 39 378 12 C405 1 440 -19 450 -42 C484 24 445 122 364 136 L364 136 Z " />
<glyph glyph-name="three" unicode="3" horiz-adv-x="526" d="M414 745 C159 739 65 506 267 483 C221 595 333 695 427 695 C511 695 543 550 315 414 C275 428 219 420 216 391 C222 350 268 301 354 356 C380 336 389 314 389 289 C390 179 161 32 39 28 C42 73 98 154 102 178 C104 193 87 222 56 248 C-6 185 -53 72 -9 9 C14 -25 53 -39 96 -39 C258 -41 495 123 497 258 C499 305 471 351 400 381 C710 545 667 752 414 745 L414 745 Z " />
<glyph glyph-name="four" unicode="4" horiz-adv-x="577" d="M544 746 L50 289 C43 266 66 232 70 208 C175 241 275 257 350 249 C338 220 327 191 319 164 C301 114 291 78 290 64 C289 -3 345 -39 394 -38 C386 -17 386 -3 389 22 C390 32 399 61 413 102 C427 142 443 182 461 232 C494 222 529 199 537 174 C569 229 556 307 501 332 C539 426 573 511 607 588 C654 698 623 676 544 746 L544 746 Z M387 349 C314 345 199 320 146 299 L473 570 C437 480 425 450 387 349 L387 349 Z " />
<glyph glyph-name="five" unicode="5" horiz-adv-x="493" d="M485 623 C530 639 560 675 558 744 C485 684 289 707 215 746 C192 694 102 466 91 430 C87 417 94 403 104 374 C596 447 292 35 31 27 C34 73 87 154 89 177 C91 192 77 221 43 249 C-16 185 -60 72 -17 9 C7 -25 44 -40 87 -39 C498 -31 718 543 153 435 L261 651 C322 622 424 602 485 623 L485 623 Z " />
<glyph glyph-name="six" unicode="6" horiz-adv-x="497" d="M443 407 C398 432 308 432 208 355 C242 450 350 671 482 669 C482 622 437 553 433 530 C433 514 450 484 482 458 C539 521 575 625 529 688 C500 730 456 741 408 745 C191 766 -172 -30 158 -38 C464 -46 578 337 443 407 L443 407 Z M180 8 C127 9 114 102 181 277 C276 359 345 355 368 322 C419 250 308 7 180 8 L180 8 Z " />
<glyph glyph-name="seven" unicode="7" horiz-adv-x="468" d="M571 673 C569 694 542 704 506 746 C426 706 213 683 142 744 C136 673 144 640 190 624 C248 604 360 616 429 641 L421 629 C371 552 314 465 258 379 L192 379 C184 375 179 363 162 332 L228 332 C188 270 151 212 121 161 C91 111 72 75 67 60 C48 -7 107 -39 154 -37 C151 -17 154 -3 165 23 C169 32 184 60 210 102 C250 167 303 249 357 332 L409 332 C423 336 433 363 439 379 L388 379 C438 453 487 526 529 588 C561 636 573 658 571 673 L571 673 Z " />
<glyph glyph-name="eight" unicode="8" horiz-adv-x="498" d="M389 409 C616 554 623 746 403 746 C189 746 80 547 219 407 C-49 255 -79 -39 173 -39 C480 -38 586 231 389 409 L389 409 Z M399 699 C454 696 546 640 322 471 C225 557 266 707 399 699 L399 699 Z M175 8 C37 8 129 253 284 337 C406 208 376 8 175 8 L175 8 Z " />
<glyph glyph-name="nine" unicode="9" horiz-adv-x="460" d="M394 746 C88 754 -26 371 110 300 C154 276 244 275 344 353 C310 258 201 36 69 38 C69 65 89 130 90 146 C90 161 69 189 32 213 C3 152 -10 64 23 20 C53 -22 96 -34 144 -38 C362 -59 725 736 394 746 L394 746 Z M371 430 C276 346 206 353 184 386 C134 458 244 701 371 699 C426 699 439 606 371 430 L371 430 Z " />
<glyph glyph-name="colon" unicode="&#x3a;" horiz-adv-x="263" d="M131 135 C99 135 70 104 65 67 C59 30 79 0 109 0 C141 0 170 30 174 67 C181 104 161 135 131 135 L131 135 Z M209 413 C177 413 148 382 143 345 C137 308 157 278 187 278 C219 278 248 308 252 345 C259 382 239 413 209 413 L209 413 Z " />
<glyph glyph-name="semicolon" unicode="&#x3b;" horiz-adv-x="261" d="M146 135 C121 135 95 113 89 87 C87 67 92 51 108 41 C111 7 84 -21 53 -31 C157 -75 241 135 146 135 L146 135 Z M209 413 C177 413 148 382 143 345 C137 308 157 278 187 278 C219 278 248 308 252 345 C259 382 239 413 209 413 L209 413 Z " />
<glyph glyph-name="less" unicode="&#x3c;" horiz-adv-x="456" d="M534 745 C466 656 302 500 151 353 C189 208 233 52 234 -37 C341 -21 322 45 316 72 C305 123 266 236 229 353 C358 471 477 561 527 613 C553 637 576 685 534 745 L534 745 Z " />
<glyph glyph-name="equal" unicode="&#x3d;" horiz-adv-x="530" d="M439 482 C395 494 183 470 120 483 C112 413 151 401 168 401 C242 400 372 428 447 409 C458 407 465 404 472 393 C482 424 472 468 439 482 L439 482 Z M439 322 C395 334 183 310 120 323 C112 252 151 242 168 242 C242 239 372 267 447 249 C458 247 465 244 472 233 C482 264 472 308 439 322 L439 322 Z " />
<glyph glyph-name="greater" unicode="&#x3e;" horiz-adv-x="542" d="M139 -37 C207 52 371 208 522 355 C484 500 440 656 439 745 C332 729 351 663 357 636 C368 585 407 472 444 355 C315 237 196 147 146 95 C120 71 97 23 139 -37 L139 -37 Z " />
<glyph glyph-name="question" unicode="&#x3f;" horiz-adv-x="503" d="M76 545 C82 506 118 472 189 464 C121 649 480 782 435 626 C419 567 337 499 243 405 C184 346 132 294 131 240 C131 186 166 161 216 161 C213 188 217 214 230 239 C308 392 561 497 574 634 C592 832 48 749 76 545 L76 545 Z M145 137 C176 137 196 105 189 68 C185 30 155 0 123 0 C93 0 72 30 78 68 C83 105 113 137 145 137 L145 137 Z " />
<glyph glyph-name="at" unicode="&#x40;" horiz-adv-x="882" d="M615 749 C114 760 -145 -51 380 -39 C526 -36 531 40 503 83 C474 38 415 11 355 11 C1 8 264 651 612 678 C1054 710 687 24 608 125 C605 129 604 137 605 147 C605 179 643 279 694 398 C749 525 742 486 648 566 L648 565 C622 501 596 436 574 377 C513 269 420 122 390 122 C343 122 471 447 560 498 C578 509 595 513 616 507 C601 546 566 580 520 580 C401 580 163 92 383 92 C419 92 483 183 536 275 C524 236 516 204 516 184 C514 128 555 102 589 95 C898 28 1041 740 615 749 L615 749 Z " />
<glyph glyph-name="A" unicode="A" horiz-adv-x="894" d="M890 746 C682 735 419 696 343 625 C278 569 280 473 343 414 C359 464 386 503 420 533 C490 590 657 655 803 671 C743 591 635 461 516 337 C490 337 466 336 442 334 C379 330 354 305 335 232 C357 245 395 255 439 262 C321 148 201 53 112 29 C74 19 35 21 3 45 C3 -27 56 -80 147 -77 C245 -78 417 92 572 276 C618 277 664 278 703 277 C666 176 637 93 636 67 C635 -12 705 -39 742 -39 C799 -39 870 75 921 155 C932 170 920 179 908 174 C865 111 790 -4 749 -3 C741 -3 737 7 738 24 C740 64 872 384 957 585 C1004 697 970 676 890 746 L890 746 Z M622 335 C713 450 796 563 846 636 C807 544 761 428 721 327 C689 330 656 333 622 335 L622 335 Z " />
<glyph glyph-name="B" unicode="B" horiz-adv-x="789" d="M696 327 C812 464 912 752 729 747 C690 746 614 640 553 535 C567 573 577 605 584 626 C592 651 591 666 590 671 C581 694 549 705 502 746 C308 672 72 554 20 465 C-23 390 7 301 85 264 C85 315 98 361 123 400 C176 482 329 605 471 660 C432 550 382 406 344 301 C306 200 271 103 232 35 C205 -13 173 -46 136 -45 C40 -44 159 106 164 141 C167 158 153 187 120 216 C28 122 -40 -74 155 -78 C237 -80 304 -35 348 33 C383 87 425 186 464 289 C473 313 484 341 495 372 C553 486 682 693 722 693 C773 693 683 444 580 363 C551 361 520 352 489 334 C504 291 541 256 591 256 C613 256 637 269 662 292 C696 220 640 84 476 38 C434 26 394 27 367 46 C376 -11 426 -38 488 -40 C730 -48 853 220 696 327 L696 327 Z " />
<glyph glyph-name="C" unicode="C" horiz-adv-x="706" d="M640 746 C561 744 437 589 354 416 C219 373 88 315 25 201 C-32 100 -10 -13 113 -37 C76 144 179 251 316 326 C248 144 244 -31 406 -39 C525 -45 659 34 733 155 C743 168 733 180 721 174 C637 38 498 -5 421 5 C330 16 401 228 502 409 C612 452 718 488 776 537 C876 622 734 747 640 746 L640 746 Z M766 574 C716 526 632 496 538 469 C604 575 675 655 723 653 C760 652 809 614 766 574 L766 574 Z " />
<glyph glyph-name="D" unicode="D" horiz-adv-x="836" d="M740 746 C691 748 619 650 549 527 C564 568 575 605 583 628 C591 651 590 668 589 672 C580 695 548 707 502 746 C308 673 73 555 21 466 C-23 391 6 303 85 266 C84 317 99 362 123 400 C175 483 328 606 470 661 C431 551 380 405 343 303 C306 201 272 104 233 36 C205 -12 172 -44 136 -43 C40 -42 158 108 164 143 C167 159 152 189 120 216 C28 123 -40 -73 155 -76 C236 -78 303 -33 348 35 C382 88 424 187 463 290 C469 307 476 325 483 343 C573 514 679 695 725 695 C850 696 638 -42 364 46 C381 1 423 -40 477 -38 C790 -31 1039 740 740 746 L740 746 Z " />
<glyph glyph-name="E" unicode="E" horiz-adv-x="756" d="M763 742 C643 774 315 601 298 462 C297 447 298 433 303 420 C186 379 81 323 28 227 C-29 126 -6 13 117 -10 C77 179 201 288 358 364 C390 347 430 340 461 341 C403 306 326 248 286 180 C204 27 288 -46 416 -39 C530 -33 717 51 790 157 C799 172 785 178 775 175 C709 85 536 4 428 1 C364 -1 330 30 376 108 C432 203 610 304 717 312 C655 373 649 396 628 401 C616 404 574 389 542 384 C521 380 442 367 403 384 C561 455 733 504 816 564 C897 624 851 717 763 742 L763 742 Z M807 601 C729 528 562 497 399 451 C463 543 719 675 802 640 C827 631 826 618 807 601 L807 601 Z " />
<glyph glyph-name="F" unicode="F" horiz-adv-x="771" d="M1158 878 C1128 837 1090 810 1048 791 C951 748 789 751 625 746 C421 740 76 724 5 482 C-20 397 8 294 118 273 C107 328 112 384 127 434 C193 649 381 684 578 677 C583 677 589 676 594 676 C569 606 539 523 510 441 C494 442 478 443 464 444 C455 444 446 445 439 446 C426 389 430 403 485 394 C488 393 490 393 493 393 C483 366 473 340 465 314 C425 209 390 111 351 41 C322 -9 288 -42 251 -42 C152 -41 274 114 280 150 C283 166 268 197 235 226 C141 130 71 -72 271 -76 C354 -77 423 -31 469 39 C505 93 548 196 588 301 C598 327 608 355 618 382 C650 382 685 383 725 386 C792 390 817 416 836 491 C796 467 720 453 642 446 C664 509 685 567 697 605 C705 630 704 646 703 651 C700 657 695 663 690 669 C844 656 993 635 1092 679 C1171 713 1199 802 1158 878 L1158 878 Z " />
<glyph glyph-name="G" unicode="G" horiz-adv-x="853" d="M767 39 C785 91 826 208 851 275 C809 300 798 326 762 316 C652 286 604 283 552 290 C579 214 599 204 699 234 C706 236 714 238 720 240 C619 126 492 -6 425 0 C333 10 403 227 505 409 C616 453 722 489 780 537 C886 628 731 748 642 746 C564 745 439 589 356 416 C220 372 90 314 25 200 C-31 99 -8 -15 115 -39 C77 143 180 250 319 325 C250 143 246 -32 410 -40 C508 -45 631 89 721 200 C706 157 691 115 684 93 C670 51 663 22 663 10 C662 -46 713 -80 752 -78 C745 -61 745 -50 748 -28 C748 -20 756 3 767 39 L767 39 Z M727 654 C763 653 812 614 770 575 C720 526 635 497 540 469 C607 575 679 656 727 654 L727 654 Z " />
<glyph glyph-name="H" unicode="H" horiz-adv-x="821" d="M880 585 C928 695 894 676 813 746 C773 645 702 471 645 324 C592 331 536 335 480 337 C518 440 564 570 582 627 C589 650 589 667 587 671 C579 694 546 705 500 745 C307 671 72 554 20 465 C-23 391 6 302 84 266 C83 316 97 361 122 401 C174 482 327 605 469 660 C434 561 390 435 354 334 C352 334 351 334 349 334 C285 329 261 305 242 232 C260 243 290 252 326 258 C295 174 265 94 232 36 C204 -12 171 -43 135 -43 C39 -42 158 108 163 142 C166 159 151 189 120 216 C28 123 -40 -73 154 -76 C235 -77 302 -33 347 35 C380 85 419 177 456 274 C516 278 577 279 627 277 C589 175 561 93 560 67 C558 -11 629 -40 667 -39 C723 -38 805 74 855 153 C867 169 849 180 838 175 C796 112 714 -4 674 -3 C665 -3 661 7 661 25 C663 65 795 385 880 585 L880 585 Z " />
<glyph glyph-name="I" unicode="I" horiz-adv-x="479" d="M587 671 C578 695 545 705 500 746 C307 672 71 555 19 465 C-25 390 5 302 83 265 C83 316 96 360 121 401 C173 483 326 605 468 661 C428 551 379 406 341 303 C303 200 269 105 231 35 C203 -12 171 -44 134 -44 C37 -42 157 108 163 142 C165 159 151 188 119 216 C26 122 -42 -73 154 -76 C235 -78 302 -34 346 35 C381 89 422 186 462 290 C501 395 560 561 581 627 C588 649 588 667 587 671 L587 671 Z " />
<glyph glyph-name="J" unicode="J" horiz-adv-x="505" d="M602 670 C594 695 561 706 513 746 C318 671 79 553 26 462 C-18 385 12 296 91 259 C91 310 105 356 131 396 C182 479 337 604 483 660 C433 523 356 305 316 196 C278 94 242 -4 204 -73 C175 -122 142 -153 105 -153 C9 -152 129 0 134 35 C137 52 122 81 89 110 C-3 16 -72 -183 125 -186 C207 -187 276 -143 322 -74 C356 -21 399 79 437 183 C479 291 575 560 596 626 C604 650 604 667 602 670 L602 670 Z " />
<glyph glyph-name="K" unicode="K" horiz-adv-x="808" d="M858 769 C860 713 833 671 789 614 C732 540 604 417 479 319 C519 425 570 567 589 627 C597 650 597 667 595 672 C586 695 553 706 507 747 C313 673 77 555 25 465 C-19 390 11 301 89 265 C89 315 103 361 128 400 C180 482 333 605 475 661 C436 551 387 405 348 301 C311 200 276 103 237 34 C209 -13 177 -46 140 -45 C44 -45 162 106 168 142 C171 158 156 187 125 215 C32 122 -36 -75 160 -78 C241 -80 308 -36 353 33 C380 74 411 144 442 221 C473 84 541 -42 634 -41 C714 -41 791 65 846 161 C850 173 828 178 824 166 C792 107 712 14 677 14 C619 14 558 167 547 290 C706 391 867 512 917 577 C982 662 917 755 858 769 L858 769 Z " />
<glyph glyph-name="L" unicode="L" horiz-adv-x="755" d="M929 610 C956 693 902 745 823 746 C663 748 586 583 526 406 C333 356 114 304 27 148 C-30 46 -6 -70 117 -92 C66 155 290 265 506 347 C473 243 443 142 401 74 C340 106 210 103 191 30 C165 -67 356 -71 433 -9 C508 -40 662 -176 757 -184 C880 -193 924 -96 893 -23 C865 -58 793 -70 740 -64 C647 -56 546 17 486 41 C543 108 593 257 646 399 C725 428 893 507 929 610 L929 610 Z M842 711 C893 711 913 661 900 626 C869 544 732 468 664 445 C719 590 776 713 842 711 L842 711 Z M241 5 C235 55 328 49 364 24 C326 -24 245 -27 241 5 L241 5 Z " />
<glyph glyph-name="M" unicode="M" horiz-adv-x="1068" d="M1082 175 C1040 111 959 -5 918 -3 C909 -3 906 7 907 24 C907 53 963 192 981 236 C1025 345 1105 526 1106 637 C1107 671 1100 700 1082 719 C1067 736 1045 746 1013 746 C982 746 915 684 848 609 C849 619 849 628 849 637 C850 671 843 700 825 719 C810 736 787 746 756 746 C723 746 646 672 572 589 C577 603 581 617 584 627 C592 650 592 666 590 671 C582 695 549 705 503 746 C309 672 74 555 22 465 C-21 391 8 302 86 265 C86 316 100 361 124 401 C177 483 330 605 472 661 C433 550 383 405 345 302 C307 201 273 104 234 36 C206 -12 174 -44 138 -44 C42 -43 160 107 166 142 C168 159 154 188 122 216 C30 123 -38 -73 157 -77 C238 -78 305 -34 349 34 C384 87 426 187 465 289 C488 351 518 434 543 504 C621 595 710 681 735 681 C744 681 747 670 746 652 C740 564 544 125 542 46 C539 -20 609 -39 655 -38 C647 -18 646 -5 650 20 C665 123 790 372 834 542 C903 618 971 681 992 681 C1001 681 1004 670 1003 652 C997 565 897 343 858 241 C839 192 805 107 805 67 C802 -11 873 -39 911 -39 C968 -39 1044 77 1095 155 C1105 172 1094 179 1082 175 L1082 175 Z " />
<glyph glyph-name="N" unicode="N" horiz-adv-x="811" d="M826 176 C783 112 703 -4 662 -2 C653 -2 649 7 650 25 C651 54 707 192 724 236 C768 345 848 526 850 638 C851 671 843 701 826 720 C810 736 788 746 757 746 C722 746 642 669 567 583 C573 600 577 615 582 627 C589 650 589 667 588 671 C579 695 546 705 500 746 C307 672 72 555 19 465 C-23 391 5 303 84 266 C83 317 97 361 122 401 C174 483 327 605 469 661 C430 550 380 405 342 303 C305 201 270 105 231 37 C204 -12 172 -43 135 -43 C39 -42 158 108 163 143 C167 159 151 189 120 216 C28 123 -40 -73 154 -76 C235 -77 302 -33 347 34 C382 87 424 187 462 290 C486 349 514 429 539 497 C619 590 710 681 736 681 C745 681 748 670 747 652 C740 564 641 344 602 242 C584 192 549 108 548 68 C546 -11 617 -39 655 -39 C712 -38 788 79 839 158 C850 174 838 179 826 176 L826 176 Z " />
<glyph glyph-name="O" unicode="O" horiz-adv-x="804" d="M769 746 C713 746 619 693 564 623 C556 628 543 632 537 631 C532 631 526 628 518 626 C325 552 73 414 22 325 C-21 250 8 162 86 125 C86 176 99 221 125 261 C163 323 270 417 384 486 C250 285 143 -54 397 -40 C725 -23 1017 746 769 746 L769 746 Z M381 -3 C256 -1 527 567 637 569 C626 583 609 596 596 606 C615 634 701 704 737 670 C818 595 546 -6 381 -3 L381 -3 Z " />
<glyph glyph-name="P" unicode="P" horiz-adv-x="743" d="M722 747 C689 746 617 653 552 549 C563 581 573 609 578 627 C586 651 586 667 584 672 C575 695 543 706 496 746 C303 673 68 555 17 466 C-27 391 2 303 80 266 C80 316 94 362 118 401 C170 483 323 605 466 661 C427 551 376 407 338 303 C301 202 267 105 228 37 C200 -11 168 -43 132 -43 C35 -42 154 108 160 143 C162 160 147 189 116 217 C24 124 -44 -72 150 -76 C231 -77 299 -33 343 35 C378 88 420 188 458 290 C472 326 488 369 504 412 C579 538 685 694 716 694 C767 694 665 408 563 315 C539 293 498 271 467 281 C483 238 520 204 569 204 C700 204 963 753 722 747 L722 747 Z " />
<glyph glyph-name="Q" unicode="Q" horiz-adv-x="804" d="M1000 -26 C972 -61 902 -71 847 -66 C781 -60 677 -6 586 37 C825 242 977 746 776 746 C718 746 623 694 568 623 C560 627 547 630 541 630 C535 629 529 627 522 624 C328 550 72 410 21 321 C-24 246 6 156 85 119 C84 170 99 216 124 256 C163 319 271 414 386 483 C251 279 142 -62 400 -49 C443 -47 485 -32 525 -8 C637 -72 800 -182 865 -186 C988 -196 1031 -99 1000 -26 L1000 -26 Z M383 -13 C258 -11 531 565 641 567 C630 581 613 595 600 605 C619 633 706 704 743 670 C807 612 657 237 509 69 C476 80 433 92 417 88 C400 86 393 72 365 45 C391 49 432 36 463 24 C435 1 408 -13 383 -13 L383 -13 Z " />
<glyph glyph-name="R" unicode="R" horiz-adv-x="792" d="M803 168 C769 110 699 16 665 15 C616 13 562 126 539 235 C544 234 548 234 553 234 C684 234 966 753 724 747 C691 747 621 656 557 554 C567 585 575 610 581 628 C588 651 588 667 587 671 C578 695 546 707 498 746 C306 672 70 554 17 466 C-26 390 4 302 82 266 C81 316 95 361 120 401 C172 483 325 606 468 661 C429 550 378 406 340 302 C303 201 268 104 230 36 C203 -12 170 -44 133 -43 C37 -43 156 107 162 142 C165 158 150 188 118 216 C26 123 -42 -74 152 -77 C233 -79 301 -34 345 34 C370 73 400 135 428 206 C461 76 532 -40 622 -39 C703 -39 769 70 824 162 C828 173 806 179 803 168 L803 168 Z M719 695 C769 695 649 440 547 345 C528 328 496 309 468 309 C481 344 495 383 509 422 C585 545 688 695 719 695 L719 695 Z M461 289 C461 289 461 289 461 290 C461 289 461 289 461 289 C461 289 461 289 461 289 L461 289 Z " />
<glyph glyph-name="S" unicode="S" horiz-adv-x="900" d="M826 747 C760 746 690 732 651 696 C592 641 620 562 643 501 C448 434 17 312 -1 59 C-6 -7 37 -81 120 -86 C75 247 422 363 662 453 C696 363 747 222 742 138 C737 64 681 8 600 8 C577 8 555 13 537 26 C502 58 598 173 606 204 C609 220 597 250 566 277 C430 148 419 -40 631 -40 C757 -40 864 23 873 147 C881 243 824 390 787 494 C1006 580 1008 750 826 747 L826 747 Z M773 540 C758 582 734 659 778 696 C789 705 804 710 820 713 C940 737 985 608 773 540 L773 540 Z " />
<glyph glyph-name="T" unicode="T" horiz-adv-x="612" d="M1157 878 C1127 837 1089 810 1047 791 C950 749 789 752 625 746 C421 740 76 725 5 483 C-20 398 8 294 118 274 C107 329 112 384 127 435 C192 649 381 685 578 677 C583 677 589 676 593 676 C554 569 507 432 464 314 C425 210 390 112 350 42 C322 -8 288 -41 251 -41 C152 -40 274 114 280 151 C282 167 268 198 235 226 C141 131 71 -71 271 -75 C354 -76 423 -30 469 40 C504 94 547 197 588 302 C629 411 675 539 697 605 C704 630 703 646 702 651 C700 658 695 664 689 669 C843 656 992 636 1091 679 C1170 713 1198 802 1157 878 L1157 878 Z " />
<glyph glyph-name="U" unicode="U" horiz-adv-x="806" d="M840 528 C888 640 853 620 773 691 C721 560 628 335 576 191 C525 125 382 6 365 6 C355 6 352 17 353 33 C354 74 483 385 568 584 C616 696 583 676 501 746 C308 673 73 555 21 467 C-22 392 7 303 85 267 C85 317 99 362 124 402 C175 482 325 604 467 660 C384 453 250 125 249 68 C246 -10 317 -39 355 -39 C381 -39 484 45 553 119 C545 96 542 78 542 68 C539 -10 610 -39 648 -39 C705 -38 781 78 832 156 C843 173 830 180 819 175 C777 111 695 -4 655 -2 C646 -2 643 8 643 25 C644 66 755 329 840 528 L840 528 Z " />
<glyph glyph-name="V" unicode="V" horiz-adv-x="814" d="M987 811 C968 840 913 856 848 849 C866 826 872 802 872 778 C872 605 519 103 372 19 C371 23 372 28 372 34 C376 56 387 88 392 101 C431 217 520 437 566 541 C628 687 620 642 514 733 L512 733 L499 748 C305 674 68 555 18 465 C-27 391 3 301 81 264 C80 315 96 360 120 401 C174 486 338 617 487 669 C422 504 319 250 280 126 C267 87 259 54 274 18 C288 -15 318 -38 348 -41 C468 -51 1096 654 987 811 L987 811 Z " />
<glyph glyph-name="W" unicode="W" horiz-adv-x="1065" d="M1206 794 C1186 819 1130 836 1066 829 C1084 805 1092 783 1093 756 C1102 582 831 105 686 20 C686 26 686 31 687 36 C690 60 698 91 701 103 C736 222 791 377 831 485 C859 557 871 583 862 601 C854 620 825 633 767 679 C763 672 757 657 750 638 C690 505 438 6 379 11 C372 12 373 22 375 36 C379 60 389 91 394 103 C434 222 525 443 569 551 C633 699 625 653 517 746 C323 672 69 532 18 443 C-26 370 4 281 82 245 C82 295 94 341 120 379 C171 460 335 596 481 657 C415 492 318 249 281 129 C268 88 259 56 274 19 C288 -14 317 -40 349 -39 C449 -38 591 236 684 437 C646 327 609 210 588 129 C578 88 569 56 587 19 C603 -14 633 -37 666 -39 C787 -50 1331 640 1206 794 L1206 794 Z " />
<glyph glyph-name="X" unicode="X" horiz-adv-x="957" d="M1087 843 C954 818 832 626 675 430 C654 520 634 610 613 682 C603 718 561 728 539 747 C342 672 79 532 24 443 C-24 369 2 280 79 243 C81 294 96 339 124 379 C177 458 344 592 492 654 C511 578 541 440 574 314 C494 229 405 146 335 94 C272 49 168 -9 98 45 C96 -44 208 -101 294 -64 C384 -26 493 93 598 224 C626 122 667 -41 790 -41 C871 -41 923 56 988 161 C995 172 973 177 967 166 C930 105 868 15 834 15 C748 12 709 280 693 346 C698 353 703 358 707 365 C851 556 966 728 1125 728 C1158 729 1185 720 1206 692 C1222 765 1168 858 1087 843 L1087 843 Z " />
<glyph glyph-name="Y" unicode="Y" horiz-adv-x="779" d="M884 618 C877 641 844 653 797 694 C790 676 780 649 769 618 C699 474 476 48 416 53 C409 53 410 65 413 79 C416 103 427 136 432 149 C474 270 543 433 589 544 C655 696 647 647 535 746 C336 670 72 526 18 434 C-26 357 4 265 85 227 C85 279 98 327 124 367 C177 450 347 591 499 654 C436 500 353 299 315 176 C303 134 292 99 309 61 C324 27 353 0 387 1 C478 1 590 196 678 369 C631 240 583 111 559 45 C521 -57 487 -155 448 -222 C420 -272 388 -305 351 -304 C253 -304 373 -152 379 -117 C381 -100 367 -70 335 -41 C242 -136 172 -334 369 -337 C453 -338 519 -294 564 -224 C599 -170 642 -71 681 32 C721 140 859 509 878 573 C886 597 886 613 884 618 L884 618 Z " />
<glyph glyph-name="Z" unicode="Z" horiz-adv-x="565" d="M590 176 C554 167 501 148 466 137 C474 203 450 257 374 257 C490 333 723 587 642 694 C522 848 48 627 4 425 C-11 357 19 282 104 271 C40 445 427 765 523 676 C599 607 317 302 206 260 C189 252 183 252 180 249 C177 246 173 222 168 207 C240 232 369 199 334 94 C238 60 -192 -142 -121 -270 C-90 -324 -3 -319 49 -306 C243 -260 420 -46 457 96 C493 112 547 136 582 146 C604 151 606 179 590 176 L590 176 Z M13 -261 C-12 -265 -62 -272 -76 -250 C-125 -162 253 32 325 54 C285 -49 143 -238 13 -261 L13 -261 Z " />
<glyph glyph-name="bracketleft" unicode="&#x5b;" horiz-adv-x="218" d="M425 688 C413 725 409 737 397 741 C390 744 335 747 300 746 C226 744 235 753 212 690 C147 521 17 126 -4 8 C-5 -4 0 -18 11 -26 C21 -34 36 -34 50 -35 C50 -33 167 -38 193 -40 C154 29 170 16 86 15 C78 15 60 15 52 15 C106 188 236 555 303 692 C341 691 401 688 425 688 L425 688 Z " />
<glyph glyph-name="backslash" unicode="&#x5c;" horiz-adv-x="456" d="M152 824 C55 792 88 714 103 683 C172 536 522 -43 495 -149 C682 -117 205 631 152 824 L152 824 Z " />
<glyph glyph-name="bracketright" unicode="&#x5d;" horiz-adv-x="344" d="M431 732 C421 741 405 741 392 741 C392 740 276 745 249 746 C288 677 274 690 357 690 C364 690 382 690 390 691 C337 519 206 152 140 13 C102 15 42 18 18 18 C30 -18 33 -31 45 -35 C52 -38 107 -39 143 -38 C217 -37 207 -47 231 16 C295 186 424 581 445 700 C447 709 441 725 431 732 L431 732 Z " />
<glyph glyph-name="asciicircum" unicode="&#x5e;" horiz-adv-x="357" d="M68 411 C128 418 190 441 260 502 C280 460 312 424 372 422 C355 445 338 495 335 547 C334 566 335 590 339 611 C343 623 328 630 314 633 C297 634 276 628 262 604 C247 581 222 558 202 532 C156 479 106 434 68 411 L68 411 Z " />
<glyph glyph-name="underscore" unicode="&#x5f;" horiz-adv-x="503" d="M430 0 C384 10 126 -10 61 2 C53 -61 93 -70 110 -70 C186 -70 361 -47 437 -63 C450 -65 456 -68 464 -77 C474 -51 464 -14 430 0 L430 0 Z " />
<glyph glyph-name="grave" unicode="&#x60;" horiz-adv-x="200" d="M153 746 C58 746 142 536 246 580 C215 590 188 618 191 652 C207 662 212 678 210 698 C204 724 178 746 153 746 L153 746 Z " />
<glyph glyph-name="a" unicode="a" horiz-adv-x="443" d="M455 175 C416 116 350 30 332 30 C324 30 321 41 321 56 C322 91 362 194 414 316 C470 448 463 406 367 489 C340 421 313 354 290 294 C227 183 132 30 100 30 C51 30 184 366 275 419 C295 430 311 434 333 428 C318 468 281 504 234 504 C112 504 -135 0 93 0 C130 0 195 95 251 188 C238 150 229 117 229 96 C227 24 291 0 325 0 C354 0 422 87 469 160 C473 170 464 179 455 175 L455 175 Z " />
<glyph glyph-name="b" unicode="b" horiz-adv-x="390" d="M237 746 C183 609 81 363 26 200 C10 155 1 122 -1 108 C-2 45 52 10 97 12 C89 32 88 44 92 68 C96 106 112 143 126 176 C185 287 300 473 334 473 C383 473 249 139 158 85 C139 74 122 69 102 77 C116 36 152 0 199 0 C323 0 569 504 342 504 C302 504 232 399 174 300 C214 402 258 512 296 598 C339 702 311 680 237 746 L237 746 L237 746 Z " />
<glyph glyph-name="c" unicode="c" horiz-adv-x="335" d="M351 173 C297 87 184 27 117 31 C96 32 84 44 91 78 C112 182 226 426 297 426 C300 426 302 425 304 425 C301 414 297 401 292 389 C274 336 263 330 261 311 C260 298 268 284 294 259 C336 307 356 350 359 383 C359 395 355 405 348 417 C347 420 344 424 341 427 C310 468 273 504 233 504 C154 504 26 298 1 149 C-15 42 39 0 97 0 C196 0 316 72 364 158 C369 169 358 177 351 173 L351 173 Z " />
<glyph glyph-name="d" unicode="d" horiz-adv-x="439" d="M516 569 C572 700 564 659 469 743 C464 735 440 669 434 656 C421 621 405 583 389 542 C361 471 331 394 304 325 C244 212 133 32 98 32 C50 32 186 366 278 418 C296 430 314 434 334 427 C319 468 282 504 236 504 C113 504 -135 0 92 0 C131 0 207 112 262 211 C243 155 231 113 230 96 C229 24 291 0 325 0 C355 0 423 88 469 159 C473 170 465 178 455 174 C416 116 350 32 333 32 C325 32 321 41 322 56 C323 91 464 447 516 569 L516 569 Z " />
<glyph glyph-name="e" unicode="e" horiz-adv-x="338" d="M353 174 C319 109 199 30 119 32 C97 32 85 43 92 78 C97 103 107 135 120 171 C234 158 372 266 365 377 C362 397 356 412 340 433 C315 464 277 505 235 505 C156 505 26 299 2 150 C-15 42 40 0 98 0 C207 0 320 83 365 159 C370 168 360 179 353 174 L353 174 Z M299 427 C303 427 307 427 311 425 C293 338 232 196 128 191 C173 301 247 427 299 427 L299 427 Z " />
<glyph glyph-name="f" unicode="f" horiz-adv-x="296" d="M458 678 C451 687 444 694 438 701 C413 727 387 746 359 745 C301 743 229 630 163 489 L111 489 C103 486 99 475 84 444 L141 444 C52 250 -22 28 -37 -14 C-53 -61 -63 -94 -63 -109 C-65 -171 -12 -205 33 -203 C185 -183 299 256 256 443 L256 444 L323 444 C336 451 342 466 352 489 L280 489 C333 592 384 667 422 667 C425 667 428 666 431 666 C428 653 423 640 419 626 C402 577 394 571 388 553 C383 537 391 524 420 494 C463 544 485 586 487 620 C488 642 477 656 458 678 L458 678 Z M27 -172 C27 -164 28 -156 29 -147 C30 -138 37 -111 51 -72 C60 -48 147 202 239 405 C261 204 134 -161 27 -172 L27 -172 Z " />
<glyph glyph-name="g" unicode="g" horiz-adv-x="434" d="M450 172 C429 139 371 81 305 50 C339 132 389 245 419 316 C473 446 461 410 368 490 C350 442 324 377 296 307 C234 194 130 30 98 30 C50 30 186 366 278 419 C296 430 314 434 335 427 C320 468 283 504 237 504 C112 504 -136 0 91 0 C127 0 189 85 243 174 C215 106 189 39 166 -19 C101 -58 -83 -131 -93 -213 C-95 -226 -89 -237 -78 -245 C-57 -259 -12 -260 26 -251 C84 -237 137 -207 183 -164 C247 -102 259 -62 290 13 C366 45 439 110 463 157 C468 166 460 178 450 172 L450 172 Z M59 -186 C39 -203 -31 -242 -56 -220 C-63 -177 31 -120 151 -60 C129 -112 101 -152 59 -186 L59 -186 Z " />
<glyph glyph-name="h" unicode="h" horiz-adv-x="446" d="M460 174 C421 116 351 30 334 30 C326 30 322 40 322 56 C323 73 329 93 345 137 C372 216 424 319 425 401 C425 434 419 463 401 481 C386 496 366 506 334 506 C300 506 236 418 183 330 C220 424 261 520 293 599 C338 701 309 682 235 746 C181 611 80 364 24 202 C7 156 -3 122 -3 108 C-4 44 49 11 94 13 C87 32 86 44 90 69 C90 78 98 105 112 144 C119 163 127 186 137 209 C198 321 294 475 327 475 C336 475 339 464 338 445 C334 388 273 252 251 185 C236 139 232 118 231 96 C228 24 291 0 327 0 C356 0 427 88 473 159 C477 170 468 178 460 174 L460 174 Z " />
<glyph glyph-name="i" unicode="i" horiz-adv-x="212" d="M246 656 C212 656 178 621 172 579 C167 537 190 503 225 503 C259 503 293 537 298 579 C304 621 281 656 246 656 L246 656 Z M226 174 C187 115 122 31 103 31 C96 31 92 40 93 56 C94 91 133 194 186 315 C241 446 234 406 138 489 L137 487 C72 324 3 157 1 95 C-1 25 62 0 96 0 C126 0 193 87 239 159 C243 170 235 179 226 174 L226 174 Z " />
<glyph glyph-name="j" unicode="j" horiz-adv-x="222" d="M266 658 C231 658 197 623 192 581 C185 538 208 504 243 504 C278 504 312 538 317 581 C324 623 301 658 266 658 L266 658 Z M234 173 C214 140 157 81 91 51 L91 54 C126 136 173 245 203 316 C257 446 246 410 152 490 C106 368 10 138 -49 -20 C-114 -57 -298 -131 -309 -214 C-310 -227 -305 -238 -294 -245 C-272 -260 -228 -261 -189 -252 C-131 -238 -78 -208 -33 -164 C32 -103 44 -63 74 12 L75 12 C150 45 224 110 247 157 C253 166 244 178 234 173 L234 173 Z M-156 -186 C-177 -203 -246 -243 -271 -220 C-279 -178 -185 -120 -64 -60 C-86 -112 -114 -153 -156 -186 L-156 -186 Z " />
<glyph glyph-name="k" unicode="k" horiz-adv-x="410" d="M423 173 C410 147 322 -20 291 51 C274 90 264 172 259 213 C373 253 535 501 348 504 C301 506 228 405 170 306 C209 405 254 513 290 597 C333 701 305 680 230 745 C177 610 76 364 20 201 C4 156 -6 122 -7 109 C-8 44 44 11 90 13 C83 32 82 44 85 69 C86 79 94 105 107 144 C111 153 114 162 118 172 C126 187 135 203 145 220 C155 156 169 57 209 25 C230 9 262 0 289 0 C299 -1 308 1 316 2 C359 13 421 123 440 160 C444 170 430 178 423 173 L423 173 Z M173 264 C172 264 172 264 171 264 C232 366 305 473 330 473 C384 473 263 264 173 264 L173 264 Z " />
<glyph glyph-name="l" unicode="l" horiz-adv-x="233" d="M284 571 C340 703 333 662 237 746 C232 739 208 672 202 660 C189 624 173 585 157 545 C85 364 -1 138 -3 95 C-5 24 58 0 94 0 C123 0 209 87 255 160 C259 170 250 179 242 174 C202 115 118 31 100 31 C92 31 89 40 90 55 C91 91 232 448 284 571 L284 571 Z " />
<glyph glyph-name="m" unicode="m" horiz-adv-x="694" d="M707 174 C667 116 597 31 582 31 C574 31 569 40 570 56 C570 73 576 92 592 137 C620 214 670 317 672 400 C673 433 666 462 649 480 C634 495 612 504 582 504 C542 504 469 396 411 295 C422 329 430 366 431 400 C432 433 424 462 408 480 C393 495 372 504 341 504 C305 504 238 410 183 317 C235 447 241 400 137 490 C96 386 56 287 26 201 C10 155 0 122 0 108 C-1 44 51 10 97 13 C89 32 88 44 92 68 C92 78 100 104 115 144 C120 156 124 170 130 184 C191 296 300 473 333 473 C342 473 346 463 344 445 C340 392 294 286 269 217 L269 217 C267 210 265 204 263 198 L261 193 L261 193 L261 193 C249 153 240 120 240 108 C237 44 291 10 335 13 C327 32 327 44 331 68 C332 78 340 108 354 147 C356 153 358 158 361 165 L361 166 C365 172 368 179 371 185 C432 296 540 473 575 473 C583 473 586 463 585 445 C582 388 521 251 498 184 C483 139 479 117 479 96 C477 24 539 0 574 0 C603 0 674 87 721 160 C724 170 716 179 707 174 L707 174 Z " />
<glyph glyph-name="n" unicode="n" horiz-adv-x="452" d="M466 174 C427 116 358 31 341 31 C332 31 330 41 330 56 C330 73 335 92 352 136 C379 215 430 317 432 401 C432 434 425 461 408 480 C393 495 372 504 342 504 C303 504 232 402 176 303 C178 308 179 312 181 317 C233 446 239 401 136 490 C94 386 54 287 25 201 C9 155 -1 122 -2 109 C-4 45 49 11 95 13 C87 32 86 45 90 68 C92 77 98 105 113 144 C116 151 119 159 121 168 C179 278 299 474 334 474 C342 474 346 463 344 445 C341 387 281 251 259 183 C244 139 238 118 238 96 C236 24 299 0 333 0 C364 0 434 87 481 159 C483 170 475 179 466 174 L466 174 Z " />
<glyph glyph-name="o" unicode="o" horiz-adv-x="385" d="M383 484 C363 510 310 502 308 497 C394 438 233 63 114 33 C100 30 93 30 91 48 C85 115 187 372 264 419 C283 430 300 434 321 428 C304 469 267 504 220 504 C111 504 -76 117 32 22 C46 9 65 1 90 0 C96 0 102 0 107 0 C311 8 491 379 383 484 L383 484 Z " />
<glyph glyph-name="p" unicode="p" horiz-adv-x="416" d="M346 504 C311 504 249 420 197 333 C244 444 230 414 142 491 C89 355 -17 95 -72 -67 C-88 -113 -98 -147 -98 -160 C-101 -223 -47 -257 -3 -256 C-9 -236 -11 -223 -7 -199 C-6 -190 2 -163 15 -125 C45 -41 93 78 137 189 C198 301 306 473 338 473 C387 473 253 138 162 84 C144 74 127 69 106 76 C120 36 157 1 204 1 C327 1 572 504 346 504 L346 504 Z " />
<glyph glyph-name="q" unicode="q" horiz-adv-x="402" d="M368 491 C348 441 321 373 292 299 C231 187 133 32 101 32 C51 32 188 366 279 420 C297 430 314 434 335 428 C321 469 284 504 238 504 C114 504 -134 2 93 2 C129 2 191 86 244 176 C210 89 177 2 154 -68 C138 -114 127 -147 126 -160 C125 -223 179 -257 223 -256 C217 -236 215 -223 218 -199 C219 -190 227 -164 242 -124 C283 -9 360 183 416 316 C471 448 460 411 368 491 L368 491 Z " />
<glyph glyph-name="r" unicode="r" horiz-adv-x="344" d="M343 504 C304 503 233 400 177 302 C179 308 181 311 183 317 C235 446 241 400 138 490 C96 386 56 287 26 201 C10 154 0 121 0 107 C-2 44 51 10 96 12 C88 31 88 44 92 68 C93 77 100 104 115 142 C117 150 120 158 123 166 C181 276 301 474 336 474 C337 474 338 474 338 474 C334 459 329 442 323 426 C290 332 247 339 313 275 C362 323 393 384 395 419 C397 448 374 467 343 504 L343 504 Z " />
<glyph glyph-name="s" unicode="s" horiz-adv-x="348" d="M334 491 C280 516 143 509 118 450 C85 377 201 228 191 114 C188 65 157 31 101 31 C81 31 68 35 50 49 C65 142 127 159 50 216 C26 188 -10 126 -9 89 C-8 66 5 47 25 32 C51 11 85 0 121 0 C206 0 290 43 296 122 C307 237 203 391 227 454 C242 489 300 482 331 471 C329 459 324 447 320 430 C306 382 298 384 296 365 C294 349 298 337 330 308 C368 357 384 390 384 422 C384 454 361 481 334 491 L334 491 Z " />
<glyph glyph-name="t" unicode="t" horiz-adv-x="234" d="M256 489 C258 498 262 506 266 514 C309 617 281 596 207 661 C188 614 164 553 138 489 L85 489 C76 485 73 475 57 442 L120 442 C59 292 0 136 -1 96 C-2 54 20 27 44 14 C59 6 86 -4 102 2 C143 15 214 92 258 158 C260 169 253 178 244 173 C226 146 106 1 92 38 C91 43 90 49 91 57 C92 89 165 275 236 442 L297 442 C308 451 315 465 325 489 L256 489 L256 489 Z " />
<glyph glyph-name="u" unicode="u" horiz-adv-x="453" d="M460 174 C421 116 356 31 338 31 C330 31 326 40 327 56 C328 91 367 193 419 315 C475 446 468 405 372 489 L371 488 C333 388 292 289 265 211 C225 152 120 31 104 31 C95 31 92 40 93 56 C94 91 133 194 185 316 C241 447 234 406 138 489 C137 488 136 487 136 485 C65 324 2 156 1 96 C-1 24 62 0 96 0 C120 0 193 80 245 149 C239 127 235 109 235 96 C233 24 296 0 331 0 C361 0 427 87 474 159 C477 170 469 178 460 174 L460 174 Z " />
<glyph glyph-name="v" unicode="v" horiz-adv-x="380" d="M432 479 C415 521 339 499 335 493 C415 405 153 31 106 31 C74 32 99 101 101 109 C117 159 141 234 176 318 C233 449 225 408 129 492 C101 430 79 366 56 304 C20 204 -2 135 -3 96 C-3 77 2 61 8 48 C27 15 62 0 99 0 C198 0 471 360 432 479 L432 479 Z " />
<glyph glyph-name="w" unicode="w" horiz-adv-x="609" d="M665 478 C649 521 572 498 569 492 C648 405 387 31 340 32 C307 32 333 101 335 109 C351 159 374 233 410 316 C466 448 458 407 362 490 C359 484 350 460 347 452 C327 402 307 350 290 302 C275 261 261 225 252 194 C207 131 119 32 104 32 C96 32 92 41 93 56 C94 91 133 194 186 316 C242 448 235 407 138 490 C137 489 136 487 136 485 C66 324 2 158 1 96 C-1 24 62 0 97 0 C119 0 186 73 238 139 C234 122 232 108 232 96 C231 76 236 60 243 48 C260 14 296 0 332 0 C431 0 704 360 665 478 L665 478 Z " />
<glyph glyph-name="x" unicode="x" horiz-adv-x="455" d="M467 172 C453 151 397 40 357 32 C349 30 342 39 338 52 C323 105 309 163 296 222 C370 285 438 347 477 396 C511 436 483 509 425 504 C431 499 430 487 425 475 C410 431 352 362 284 289 C277 323 272 358 267 390 C258 461 257 485 241 493 C225 499 202 492 142 491 C144 476 153 418 155 401 C161 367 176 279 195 198 C135 139 79 86 45 55 C47 61 48 66 49 71 C70 159 111 153 41 213 C5 165 -19 110 -17 77 C-15 50 6 33 40 -1 C83 41 144 91 206 145 C213 117 219 93 225 73 C242 20 294 -11 356 2 C403 13 460 115 481 158 C485 171 474 177 467 172 L467 172 Z " />
<glyph glyph-name="y" unicode="y" horiz-adv-x="438" d="M451 172 C432 141 377 84 312 54 L312 54 C347 135 393 244 424 315 C478 445 465 409 374 489 C348 420 305 315 264 210 C223 150 119 32 103 32 C95 32 92 40 92 55 C93 89 132 194 184 315 C240 446 234 405 137 489 C137 488 137 488 136 486 C63 328 2 157 -1 95 C-2 25 60 0 95 0 C117 0 182 69 232 134 C211 80 190 27 173 -19 C108 -57 -74 -128 -85 -211 C-86 -224 -82 -235 -69 -243 C-49 -257 -5 -258 34 -248 C92 -235 144 -204 188 -163 C254 -101 265 -61 296 14 L297 15 C371 48 442 112 465 157 C471 167 462 178 451 172 L451 172 Z M67 -184 C45 -200 -23 -239 -47 -217 C-54 -175 38 -119 158 -58 C136 -110 108 -150 67 -184 L67 -184 Z " />
<glyph glyph-name="z" unicode="z" horiz-adv-x="315" d="M329 171 C311 142 273 103 222 72 C231 119 208 167 166 190 C258 241 361 397 326 468 C291 540 134 486 93 446 C56 410 76 343 87 304 C124 319 140 333 143 346 C147 368 139 402 151 447 C193 457 216 446 223 424 C244 361 141 204 40 193 C33 193 23 177 15 159 C104 164 124 77 109 34 C106 25 105 18 103 11 L76 -3 C11 -39 -172 -113 -183 -196 C-185 -217 -170 -227 -153 -233 C-144 -236 -134 -237 -124 -238 C-104 -241 -79 -237 -57 -232 C35 -210 116 -148 170 -62 C187 -35 207 0 216 36 C274 70 322 117 341 155 C346 164 338 176 329 171 L329 171 Z M-102 -203 C-119 -207 -129 -206 -136 -204 C-144 -200 -146 -197 -144 -188 C-131 -148 -47 -96 61 -42 L89 -28 C53 -115 -9 -181 -102 -203 L-102 -203 Z " />
<glyph glyph-name="braceleft" unicode="&#x7b;" horiz-adv-x="363" d="M406 746 C278 734 303 456 220 398 C118 463 60 287 210 327 C217 244 98 61 156 -18 C177 -45 221 -50 265 -12 C148 -38 309 251 254 356 C382 437 351 733 482 675 C481 717 443 749 406 746 L406 746 Z " />
<glyph glyph-name="bar" unicode="&#x7c;" horiz-adv-x="244" d="M194 792 C200 617 -1 -132 163 -107 C112 -26 252 547 270 686 C276 716 282 792 194 792 L194 792 Z " />
<glyph glyph-name="braceright" unicode="&#x7d;" horiz-adv-x="426" d="M315 379 C308 462 427 644 369 724 C349 751 304 756 261 717 C377 743 216 455 272 351 C144 270 175 -25 44 32 C46 -9 82 -42 120 -39 C247 -27 222 250 305 309 C408 243 465 419 315 379 L315 379 Z " />
<glyph glyph-name="exclamdown" unicode="&#xa1;" horiz-adv-x="217" d="M27 123 C13 76 20 18 110 0 C126 125 252 419 264 499 C277 564 232 593 189 592 C197 574 198 561 194 538 C175 411 63 245 27 123 L27 123 Z M257 611 C289 611 318 642 323 679 C329 716 309 746 279 746 C247 746 218 716 214 679 C207 642 227 611 257 611 L257 611 Z " />
<glyph glyph-name="cent" unicode="&#xa2;" horiz-adv-x="613" d="M588 687 C591 694 593 699 596 704 C609 733 643 797 569 824 C563 799 549 767 532 729 C508 742 482 749 459 748 C385 747 267 598 187 433 L150 346 C88 177 82 15 224 -1 C221 -39 230 -65 254 -73 C251 -58 256 -33 266 -1 C368 5 468 80 546 180 C557 192 544 207 532 200 C445 98 349 45 278 39 C341 210 499 504 571 650 C575 647 579 644 583 640 C580 628 575 615 571 601 C551 544 539 537 537 516 C535 501 544 485 572 458 C620 512 642 559 644 596 C646 625 613 663 588 687 L588 687 Z M328 427 L363 483 C406 552 451 609 490 639 C401 452 267 196 232 46 C176 84 240 268 328 427 L328 427 Z " />
<glyph glyph-name="sterling" unicode="&#xa3;" horiz-adv-x="789" d="M724 548 C722 533 733 517 762 487 C812 543 836 594 838 633 C842 695 766 745 708 746 C547 749 470 583 410 406 L391 347 C390 345 389 341 388 338 C333 337 277 340 241 353 C232 293 271 281 289 281 C311 280 339 281 370 282 C344 201 318 127 285 74 C224 106 95 104 75 30 C49 -58 240 -62 317 -8 C393 -39 547 -177 642 -184 C765 -192 808 -96 778 -23 C749 -58 679 -68 625 -64 C532 -55 429 17 370 42 C411 91 451 184 489 286 C520 286 549 284 572 278 C586 274 591 271 600 263 C610 288 602 326 569 339 C557 343 536 343 510 342 C516 360 524 380 531 399 L549 447 C604 591 659 710 725 709 C745 709 763 700 775 683 C771 670 766 653 761 639 C739 578 727 570 724 548 L724 548 Z M125 6 C119 55 213 50 248 25 C211 -27 129 -31 125 6 L125 6 Z " />
<glyph glyph-name="currency" unicode="&#xa4;" horiz-adv-x="840" d="M785 572 C833 616 874 649 901 665 C856 736 801 693 779 674 C767 665 765 662 754 652 C721 710 667 746 589 746 C487 746 398 694 330 616 C296 652 270 682 256 705 C183 651 232 593 254 570 C260 564 268 555 277 546 C192 413 158 239 198 116 C151 58 111 18 87 12 C117 -28 160 -9 224 57 C261 1 319 -36 405 -40 C509 -44 596 8 661 89 C695 52 716 21 718 1 C756 24 740 73 695 135 C779 265 815 443 785 572 L785 572 Z M386 3 C111 7 314 703 587 703 C927 702 652 -1 386 3 L386 3 Z " />
<glyph glyph-name="yen" unicode="&#xa5;" horiz-adv-x="858" d="M883 573 C891 597 891 613 889 618 C880 642 847 652 801 694 C794 675 784 650 773 619 C703 474 480 48 421 54 C414 54 415 65 416 78 C421 102 432 134 436 147 C478 270 548 434 595 543 C660 696 652 648 539 746 C340 670 77 525 24 434 C-22 356 8 266 90 228 C89 280 103 327 129 367 C181 451 351 590 502 655 C440 499 358 299 320 176 C307 132 297 100 313 62 C327 28 358 0 391 0 C482 2 596 195 682 369 C636 241 588 110 564 46 C552 15 543 -15 532 -43 C475 -44 419 -42 382 -29 C373 -89 412 -101 430 -101 C452 -102 481 -101 511 -100 C504 -118 497 -136 489 -153 C449 -152 412 -148 386 -139 C376 -199 415 -210 433 -211 C441 -211 451 -211 461 -211 C460 -214 459 -216 457 -218 C408 -304 387 -323 351 -336 C359 -337 366 -337 374 -337 C457 -339 524 -293 569 -225 C573 -219 576 -213 581 -206 C631 -204 680 -204 716 -213 C729 -216 735 -219 744 -229 C754 -203 746 -165 713 -152 C695 -148 656 -149 609 -151 C618 -133 626 -115 634 -95 C663 -96 691 -99 713 -104 C726 -107 732 -111 741 -119 C751 -93 742 -55 709 -42 C698 -40 680 -39 658 -40 C667 -16 676 8 685 33 C726 140 863 509 883 573 L883 573 Z " />
<glyph glyph-name="section" unicode="&#xa7;" horiz-adv-x="641" d="M641 728 C569 759 404 751 377 674 C371 660 371 643 372 624 C317 617 267 596 253 556 C217 459 372 262 368 112 C367 48 322 2 253 1 C112 1 168 202 257 232 C161 308 71 209 76 115 C83 1 189 -39 280 -39 C376 -39 456 3 476 88 C547 107 600 157 604 236 C609 385 464 590 491 673 C506 720 600 707 641 693 C641 672 636 654 629 634 C611 578 607 579 655 536 C688 600 747 682 641 728 L641 728 Z M492 230 C492 208 486 188 476 171 C454 313 344 482 367 555 C371 564 376 570 382 576 C396 529 419 478 441 426 C469 359 493 290 492 230 L492 230 Z " />
<glyph glyph-name="dieresis" unicode="&#xa8;" horiz-adv-x="305" d="M170 746 C138 746 109 715 104 678 C98 641 118 611 148 611 C180 611 209 641 213 678 C220 715 200 746 170 746 L170 746 Z M325 746 C293 746 264 715 259 678 C253 641 273 611 303 611 C335 611 364 641 368 678 C375 715 355 746 325 746 L325 746 Z " />
<glyph glyph-name="copyright" unicode="&#xa9;" horiz-adv-x="850" d="M624 746 C124 746 -132 -21 390 -38 C891 -55 1092 746 624 746 L624 746 Z M365 5 C14 9 273 703 622 703 C1057 702 705 1 365 5 L365 5 Z M547 597 C472 597 348 398 325 255 C309 150 361 111 418 111 C476 111 531 134 588 176 C604 186 603 211 589 205 C533 164 477 138 437 141 C417 141 404 152 412 185 C432 287 542 522 610 522 C612 522 615 522 617 522 C614 510 610 498 605 486 C588 435 577 429 575 411 C573 397 582 385 607 360 C648 407 667 448 669 480 C670 496 662 512 652 524 C622 562 587 597 547 597 L547 597 Z " />
<glyph glyph-name="guillemotleft" unicode="&#xab;" horiz-adv-x="550" d="M200 353 C328 471 447 560 497 610 C523 638 546 686 507 745 C437 655 273 500 122 353 C160 205 205 51 206 -39 C311 -22 294 45 288 69 C276 120 236 237 200 353 L200 353 Z M658 745 C586 655 424 500 273 353 C313 205 356 51 358 -39 C462 -22 444 45 441 69 C427 120 389 237 353 353 C479 471 599 560 650 610 C675 638 699 686 658 745 L658 745 Z " />
<glyph glyph-name="registered" unicode="&#xae;" horiz-adv-x="868" d="M619 746 C122 746 -135 -19 386 -37 C918 -53 1107 746 619 746 L619 746 Z M361 7 C181 9 161 194 233 372 C239 347 255 323 283 311 C283 342 291 372 308 397 C339 448 439 527 527 561 C502 491 472 401 447 334 C423 270 400 209 376 166 C360 136 339 115 315 115 C253 116 328 212 332 234 C334 243 325 261 306 280 C246 220 204 97 327 96 C379 93 421 122 451 164 C466 190 484 230 502 274 C524 192 568 118 625 118 C625 118 625 118 625 118 C548 51 455 6 361 7 L361 7 Z M524 327 L521 324 L521 327 L521 327 L524 327 Z M527 338 C536 361 544 387 554 411 C600 487 666 582 685 582 C718 582 641 421 576 361 C564 351 544 339 527 338 L527 338 Z M671 160 C663 155 657 153 652 153 C619 153 586 224 570 291 C574 291 576 291 580 291 C664 291 841 619 689 615 C667 614 623 558 581 495 C589 514 595 529 599 540 C604 555 604 565 603 567 C597 582 574 589 546 614 C458 581 354 533 291 487 C369 607 488 704 618 704 C934 702 864 366 671 160 L671 160 Z " />
<glyph glyph-name="plusminus" unicode="&#xb1;" horiz-adv-x="562" d="M511 423 C489 427 435 426 374 425 C390 463 405 498 415 528 C422 550 432 602 364 615 C357 576 329 499 300 423 C216 421 132 419 93 424 C83 356 133 344 156 344 C188 344 229 348 273 351 C251 292 234 240 230 219 C229 173 260 146 293 147 C287 162 286 170 288 188 C296 235 319 296 344 355 C409 360 472 362 518 353 C535 350 543 346 555 337 C566 367 554 410 511 423 L511 423 Z M388 121 C344 133 141 110 80 123 C73 56 110 44 127 44 C197 44 323 70 393 52 C405 49 412 46 421 36 C429 66 421 108 388 121 L388 121 Z " />
<glyph glyph-name="paragraph" unicode="&#xb6;" horiz-adv-x="629" d="M569 598 L393 598 C-1 598 32 111 270 253 L236 148 C220 100 211 67 213 49 C215 23 236 20 275 -39 C297 30 425 435 461 538 L503 538 L377 146 C359 90 347 67 347 47 C347 27 382 10 415 -38 C416 -38 416 -37 416 -35 L599 538 C627 538 693 538 699 538 C654 604 662 598 569 598 L569 598 Z " />
<glyph glyph-name="guillemotright" unicode="&#xbb;" horiz-adv-x="648" d="M559 353 C431 235 312 146 262 96 C236 68 213 20 252 -39 C322 51 486 206 637 353 C599 501 554 655 553 745 C448 728 465 661 471 637 C483 586 523 469 559 353 L559 353 Z M101 -39 C173 51 335 206 486 353 C446 501 403 655 401 745 C297 728 315 661 318 637 C332 586 370 469 406 353 C280 235 160 146 109 96 C84 68 60 20 101 -39 L101 -39 Z " />
<glyph glyph-name="questiondown" unicode="&#xbf;" horiz-adv-x="537" d="M552 192 C548 230 513 260 447 268 C511 92 171 -32 213 116 C228 169 305 235 397 324 C451 379 500 430 500 480 C501 531 468 554 420 554 C423 528 418 505 407 482 C333 336 95 237 83 107 C65 -80 580 -1 552 192 L552 192 Z M506 746 C474 746 445 715 440 678 C434 641 454 611 484 611 C516 611 545 641 549 678 C556 715 536 746 506 746 L506 746 Z " />
<glyph glyph-name="Aacute" unicode="&#xc1;" horiz-adv-x="891" d="M986 877 C944 876 901 822 881 788 L918 779 C936 803 984 845 1043 852 C1035 862 1006 877 986 877 L986 877 Z M886 746 C678 735 415 696 339 625 C274 569 276 473 339 414 C355 464 382 503 416 533 C486 590 653 655 799 671 C739 591 631 461 512 337 C486 337 462 336 438 334 C375 330 350 305 331 232 C353 245 391 255 435 262 C317 148 197 53 108 29 C70 19 31 21 -1 45 C-1 -27 52 -80 143 -77 C241 -78 413 92 568 276 C614 277 660 278 699 277 C662 176 633 93 632 67 C631 -12 701 -39 738 -39 C795 -39 866 75 917 155 C928 170 916 179 904 174 C861 111 786 -4 745 -3 C737 -3 733 7 734 24 C736 64 868 384 953 585 C1000 697 966 676 886 746 L886 746 Z M618 335 C709 450 792 563 842 636 C803 544 757 428 717 327 C685 330 652 333 618 335 L618 335 Z " />
<glyph glyph-name="Acircumflex" unicode="&#xc2;" horiz-adv-x="893" d="M836 778 C868 782 900 794 936 826 C947 803 964 785 995 784 C986 796 977 822 976 849 C975 859 976 872 978 882 C980 889 972 893 965 894 C956 895 945 892 938 879 C930 867 917 855 906 841 C882 814 856 790 836 778 L836 778 Z M888 746 C680 735 417 696 341 625 C276 569 278 473 341 414 C357 464 384 503 418 533 C488 590 655 655 801 671 C741 591 633 461 514 337 C488 337 464 336 440 334 C377 330 352 305 333 232 C355 245 393 255 437 262 C319 148 199 53 110 29 C72 19 33 21 1 45 C1 -27 54 -80 145 -77 C243 -78 415 92 570 276 C616 277 662 278 701 277 C664 176 635 93 634 67 C633 -12 703 -39 740 -39 C797 -39 868 75 919 155 C930 170 918 179 906 174 C863 111 788 -4 747 -3 C739 -3 735 7 736 24 C738 64 870 384 955 585 C1002 697 968 676 888 746 L888 746 Z M620 335 C711 450 794 563 844 636 C805 544 759 428 719 327 C687 330 654 333 620 335 L620 335 Z " />
<glyph glyph-name="Adieresis" unicode="&#xc4;" horiz-adv-x="893" d="M865 893 C836 893 811 866 806 833 C801 800 819 774 845 774 C873 774 899 800 902 833 C909 866 891 893 865 893 L865 893 Z M989 893 C960 893 935 866 930 833 C925 800 943 774 969 774 C997 774 1023 800 1026 833 C1033 866 1015 893 989 893 L989 893 Z M888 746 C680 735 417 696 341 625 C276 569 278 473 341 414 C357 464 384 503 418 533 C488 590 655 655 801 671 C741 591 633 461 514 337 C488 337 464 336 440 334 C377 330 352 305 333 232 C355 245 393 255 437 262 C319 148 199 53 110 29 C72 19 33 21 1 45 C1 -27 54 -80 145 -77 C243 -78 415 92 570 276 C616 277 662 278 701 277 C664 176 635 93 634 67 C633 -12 703 -39 740 -39 C797 -39 868 75 919 155 C930 170 918 179 906 174 C863 111 788 -4 747 -3 C739 -3 735 7 736 24 C738 64 870 384 955 585 C1002 697 968 676 888 746 L888 746 Z M620 335 C711 450 794 563 844 636 C805 544 759 428 719 327 C687 330 654 333 620 335 L620 335 Z " />
<glyph glyph-name="AE" unicode="&#xc6;" horiz-adv-x="1077" d="M1056 516 C1054 500 1063 485 1091 457 C1138 511 1160 557 1163 594 C1164 628 1118 676 1095 696 C1061 726 1016 746 979 746 C955 746 926 729 895 702 C881 713 863 726 840 746 C643 735 395 696 322 631 C261 574 261 486 322 430 C336 477 362 513 396 543 C462 598 619 660 758 675 C702 598 601 478 490 362 C465 362 422 364 399 362 C338 357 315 334 297 265 C338 289 384 289 418 289 C305 182 187 87 101 64 C65 55 29 56 -3 79 C-1 11 49 -39 135 -35 C228 -37 386 118 532 291 L653 289 C607 138 619 7 758 0 C870 -6 1027 71 1111 182 C1121 193 1109 207 1097 201 C999 85 844 33 771 41 C708 47 727 159 780 288 C819 287 876 282 938 271 C934 292 940 308 926 318 C902 333 839 335 804 341 C818 369 833 398 847 426 L883 483 C945 583 1014 660 1058 658 C1072 658 1090 651 1102 639 C1099 627 1095 613 1090 600 C1069 543 1058 537 1056 516 L1056 516 Z M737 490 C727 471 717 451 708 433 L673 350 L605 354 C599 355 592 355 586 355 C673 464 750 571 798 641 C779 594 758 543 737 490 L737 490 Z " />
<glyph glyph-name="Ccedilla" unicode="&#xc7;" horiz-adv-x="599" d="M591 695 C557 726 511 747 472 746 C394 745 267 589 186 416 L148 325 C86 164 77 8 191 -30 C183 -45 175 -57 174 -63 C172 -75 181 -84 196 -117 C209 -113 243 -109 249 -120 C259 -142 175 -154 141 -152 C168 -174 196 -205 225 -205 C317 -207 307 -67 231 -75 C236 -63 242 -50 248 -39 C281 -42 331 -33 382 -15 C461 14 538 64 564 114 C575 133 576 154 561 175 C515 94 421 34 336 11 C307 3 234 -12 218 22 C186 80 250 263 333 409 L369 470 C435 575 508 656 553 654 C569 653 587 645 600 634 C596 621 592 608 587 595 C565 534 553 526 552 503 C550 488 559 473 588 444 C637 499 661 549 663 588 C666 623 616 673 591 695 L591 695 Z " />
<glyph glyph-name="Eacute" unicode="&#xc9;" horiz-adv-x="761" d="M771 877 C729 876 686 822 666 788 L703 779 C721 803 769 845 828 852 C820 862 791 877 771 877 L771 877 Z M768 742 C648 774 320 601 303 462 C302 447 303 433 308 420 C191 379 86 323 33 227 C-24 126 -1 13 122 -10 C82 179 206 288 363 364 C395 347 435 340 466 341 C408 306 331 248 291 180 C209 27 293 -46 421 -39 C535 -33 722 51 795 157 C804 172 790 178 780 175 C714 85 541 4 433 1 C369 -1 335 30 381 108 C437 203 615 304 722 312 C660 373 654 396 633 401 C621 404 579 389 547 384 C526 380 447 367 408 384 C566 455 738 504 821 564 C902 624 856 717 768 742 L768 742 Z M812 601 C734 528 567 497 404 451 C468 543 724 675 807 640 C832 631 831 618 812 601 L812 601 Z " />
<glyph glyph-name="Ecircumflex" unicode="&#xca;" horiz-adv-x="759" d="M593 778 C625 782 657 794 693 826 C704 803 721 785 752 784 C743 796 734 822 733 849 C732 859 733 872 735 882 C737 889 729 893 722 894 C713 895 702 892 695 879 C687 867 674 855 663 841 C639 814 613 790 593 778 L593 778 Z M765 742 C645 774 317 601 300 462 C299 447 300 433 305 420 C188 379 83 323 30 227 C-27 126 -4 13 119 -10 C79 179 203 288 360 364 C392 347 432 340 463 341 C405 306 328 248 288 180 C206 27 290 -46 418 -39 C532 -33 719 51 792 157 C801 172 787 178 777 175 C711 85 538 4 430 1 C366 -1 332 30 378 108 C434 203 612 304 719 312 C657 373 651 396 630 401 C618 404 576 389 544 384 C523 380 444 367 405 384 C563 455 735 504 818 564 C899 624 853 717 765 742 L765 742 Z M809 601 C731 528 564 497 401 451 C465 543 721 675 804 640 C829 631 828 618 809 601 L809 601 Z " />
<glyph glyph-name="Edieresis" unicode="&#xcb;" horiz-adv-x="765" d="M688 893 C659 893 634 866 629 833 C624 800 642 774 668 774 C696 774 722 800 725 833 C732 866 714 893 688 893 L688 893 Z M812 893 C783 893 758 866 753 833 C748 800 766 774 792 774 C820 774 846 800 849 833 C856 866 838 893 812 893 L812 893 Z M768 742 C648 774 320 601 303 462 C302 447 303 433 308 420 C191 379 86 323 33 227 C-24 126 -1 13 122 -10 C82 179 206 288 363 364 C395 347 435 340 466 341 C408 306 331 248 291 180 C209 27 293 -46 421 -39 C535 -33 722 51 795 157 C804 172 790 178 780 175 C714 85 541 4 433 1 C369 -1 335 30 381 108 C437 203 615 304 722 312 C660 373 654 396 633 401 C621 404 579 389 547 384 C526 380 447 367 408 384 C566 455 738 504 821 564 C902 624 856 717 768 742 L768 742 Z M812 601 C734 528 567 497 404 451 C468 543 724 675 807 640 C832 631 831 618 812 601 L812 601 Z " />
<glyph glyph-name="Iacute" unicode="&#xcd;" horiz-adv-x="476" d="M584 671 C575 695 542 705 497 746 C304 672 68 555 16 465 C-28 390 2 302 80 265 C80 316 93 360 118 401 C170 483 323 605 465 661 C425 551 376 406 338 303 C300 200 266 105 228 35 C200 -12 168 -44 131 -44 C34 -42 154 108 160 142 C162 159 148 188 116 216 C23 122 -45 -73 151 -76 C232 -78 299 -34 343 35 C378 89 419 186 459 290 C498 395 557 561 578 627 C585 649 585 667 584 671 L584 671 Z M575 877 C533 876 490 822 470 788 L507 779 C525 803 573 845 632 852 C624 862 595 877 575 877 L575 877 Z " />
<glyph glyph-name="Icircumflex" unicode="&#xce;" horiz-adv-x="481" d="M589 671 C580 695 547 705 502 746 C309 672 73 555 21 465 C-23 390 7 302 85 265 C85 316 98 360 123 401 C175 483 328 605 470 661 C430 551 381 406 343 303 C305 200 271 105 233 35 C205 -12 173 -44 136 -44 C39 -42 159 108 165 142 C167 159 153 188 121 216 C28 122 -40 -73 156 -76 C237 -78 304 -34 348 35 C383 89 424 186 464 290 C503 395 562 561 583 627 C590 649 590 667 589 671 L589 671 Z M451 778 C483 782 515 794 551 826 C562 803 579 785 610 784 C601 796 592 822 591 849 C590 859 591 872 593 882 C595 889 587 893 580 894 C571 895 560 892 553 879 C545 867 532 855 521 841 C497 814 471 790 451 778 L451 778 Z " />
<glyph glyph-name="Idieresis" unicode="&#xcf;" horiz-adv-x="478" d="M589 671 C580 695 547 705 502 746 C309 672 73 555 21 465 C-23 390 7 302 85 265 C85 316 98 360 123 401 C175 483 328 605 470 661 C430 551 381 406 343 303 C305 200 271 105 233 35 C205 -12 173 -44 136 -44 C39 -42 159 108 165 142 C167 159 153 188 121 216 C28 122 -40 -73 156 -76 C237 -78 304 -34 348 35 C383 89 424 186 464 290 C503 395 562 561 583 627 C590 649 590 667 589 671 L589 671 Z M488 893 C459 893 434 866 429 833 C424 800 442 774 468 774 C496 774 522 800 525 833 C532 866 514 893 488 893 L488 893 Z M612 893 C583 893 558 866 553 833 C548 800 566 774 592 774 C620 774 646 800 649 833 C656 866 638 893 612 893 L612 893 Z " />
<glyph glyph-name="Ntilde" unicode="&#xd1;" horiz-adv-x="811" d="M614 855 C587 853 578 824 566 803 C620 826 679 785 727 778 C769 772 768 789 783 819 C734 802 664 861 614 855 L614 855 Z M829 176 C786 112 706 -4 665 -2 C656 -2 652 7 653 25 C654 54 710 192 727 236 C771 345 851 526 853 638 C854 671 846 701 829 720 C813 736 791 746 760 746 C725 746 645 669 570 583 C576 600 580 615 585 627 C592 650 592 667 591 671 C582 695 549 705 503 746 C310 672 75 555 22 465 C-20 391 8 303 87 266 C86 317 100 361 125 401 C177 483 330 605 472 661 C433 550 383 405 345 303 C308 201 273 105 234 37 C207 -12 175 -43 138 -43 C42 -42 161 108 166 143 C170 159 154 189 123 216 C31 123 -37 -73 157 -76 C238 -77 305 -33 350 34 C385 87 427 187 465 290 C489 349 517 429 542 497 C622 590 713 681 739 681 C748 681 751 670 750 652 C743 564 644 344 605 242 C587 192 552 108 551 68 C549 -11 620 -39 658 -39 C715 -38 791 79 842 158 C853 174 841 179 829 176 L829 176 Z " />
<glyph glyph-name="Oacute" unicode="&#xd3;" horiz-adv-x="779" d="M766 746 C710 746 616 693 561 623 C553 628 540 632 534 631 C529 631 523 628 515 626 C322 552 70 414 19 325 C-24 250 5 162 83 125 C83 176 96 221 122 261 C160 323 267 417 381 486 C247 285 140 -54 394 -40 C722 -23 1014 746 766 746 L766 746 Z M378 -3 C253 -1 524 567 634 569 C623 583 606 596 593 606 C612 634 698 704 734 670 C815 595 543 -6 378 -3 L378 -3 Z M773 877 C731 876 688 822 668 788 L705 779 C723 803 771 845 830 852 C822 862 793 877 773 877 L773 877 Z " />
<glyph glyph-name="Ocircumflex" unicode="&#xd4;" horiz-adv-x="782" d="M764 746 C708 746 614 693 559 623 C551 628 538 632 532 631 C527 631 521 628 513 626 C320 552 68 414 17 325 C-26 250 3 162 81 125 C81 176 94 221 120 261 C158 323 265 417 379 486 C245 285 138 -54 392 -40 C720 -23 1012 746 764 746 L764 746 Z M376 -3 C251 -1 522 567 632 569 C621 583 604 596 591 606 C610 634 696 704 732 670 C813 595 541 -6 376 -3 L376 -3 Z M668 778 C700 782 732 794 768 826 C779 803 796 785 827 784 C818 796 809 822 808 849 C807 859 808 872 810 882 C812 889 804 893 797 894 C788 895 777 892 770 879 C762 867 749 855 738 841 C714 814 688 790 668 778 L668 778 Z " />
<glyph glyph-name="Odieresis" unicode="&#xd6;" horiz-adv-x="787" d="M769 746 C713 746 619 693 564 623 C556 628 543 632 537 631 C532 631 526 628 518 626 C325 552 73 414 22 325 C-21 250 8 162 86 125 C86 176 99 221 125 261 C163 323 270 417 384 486 C250 285 143 -54 397 -40 C725 -23 1017 746 769 746 L769 746 Z M381 -3 C256 -1 527 567 637 569 C626 583 609 596 596 606 C615 634 701 704 737 670 C818 595 546 -6 381 -3 L381 -3 Z M719 893 C690 893 665 866 660 833 C655 800 673 774 699 774 C727 774 753 800 756 833 C763 866 745 893 719 893 L719 893 Z M843 893 C814 893 789 866 784 833 C779 800 797 774 823 774 C851 774 877 800 880 833 C887 866 869 893 843 893 L843 893 Z " />
<glyph glyph-name="multiply" unicode="&#xd7;" horiz-adv-x="525" d="M163 220 C184 234 228 272 278 318 C298 276 297 275 313 246 C325 224 352 173 417 211 C395 248 367 288 336 372 C403 434 470 498 509 520 C467 584 416 556 400 540 C372 517 340 486 306 452 C281 544 241 597 167 564 C210 523 233 452 253 396 C202 346 151 299 106 273 C91 263 81 260 65 260 C77 227 118 201 163 220 L163 220 Z " />
<glyph glyph-name="Oslash" unicode="&#xd8;" horiz-adv-x="636" d="M667 738 C681 768 689 805 643 841 C635 817 619 785 599 747 C542 737 464 689 415 627 C407 630 394 634 389 633 C260 624 -55 45 177 -32 C167 -83 173 -119 204 -134 C202 -113 209 -80 226 -40 C233 -40 240 -40 249 -40 C553 -23 827 640 667 738 L667 738 Z M489 572 C476 585 461 599 447 609 C462 631 521 683 563 683 C454 495 271 222 201 44 C197 178 396 570 489 572 L489 572 Z M242 -1 C324 178 510 469 603 626 C605 464 387 16 242 -1 L242 -1 Z " />
<glyph glyph-name="Ugrave" unicode="&#xd9;" horiz-adv-x="803" d="M636 877 C616 877 587 862 579 852 C638 845 686 803 704 779 L741 788 C721 822 678 876 636 877 L636 877 Z M837 528 C885 640 850 620 770 691 C718 560 625 335 573 191 C522 125 379 6 362 6 C352 6 349 17 350 33 C351 74 480 385 565 584 C613 696 580 676 498 746 C305 673 70 555 18 467 C-25 392 4 303 82 267 C82 317 96 362 121 402 C172 482 322 604 464 660 C381 453 247 125 246 68 C243 -10 314 -39 352 -39 C378 -39 481 45 550 119 C542 96 539 78 539 68 C536 -10 607 -39 645 -39 C702 -38 778 78 829 156 C840 173 827 180 816 175 C774 111 692 -4 652 -2 C643 -2 640 8 640 25 C641 66 752 329 837 528 L837 528 Z " />
<glyph glyph-name="Uacute" unicode="&#xda;" horiz-adv-x="803" d="M752 877 C710 876 667 822 647 788 L684 779 C702 803 750 845 809 852 C801 862 772 877 752 877 L752 877 Z M837 528 C885 640 850 620 770 691 C718 560 625 335 573 191 C522 125 379 6 362 6 C352 6 349 17 350 33 C351 74 480 385 565 584 C613 696 580 676 498 746 C305 673 70 555 18 467 C-25 392 4 303 82 267 C82 317 96 362 121 402 C172 482 322 604 464 660 C381 453 247 125 246 68 C243 -10 314 -39 352 -39 C378 -39 481 45 550 119 C542 96 539 78 539 68 C536 -10 607 -39 645 -39 C702 -38 778 78 829 156 C840 173 827 180 816 175 C774 111 692 -4 652 -2 C643 -2 640 8 640 25 C641 66 752 329 837 528 L837 528 Z " />
<glyph glyph-name="Ucircumflex" unicode="&#xdb;" horiz-adv-x="803" d="M607 778 C639 782 671 794 707 826 C718 803 735 785 766 784 C757 796 748 822 747 849 C746 859 747 872 749 882 C751 889 743 893 736 894 C727 895 716 892 709 879 C701 867 688 855 677 841 C653 814 627 790 607 778 L607 778 Z M835 528 C883 640 848 620 768 691 C716 560 623 335 571 191 C520 125 377 6 360 6 C350 6 347 17 348 33 C349 74 478 385 563 584 C611 696 578 676 496 746 C303 673 68 555 16 467 C-27 392 2 303 80 267 C80 317 94 362 119 402 C170 482 320 604 462 660 C379 453 245 125 244 68 C241 -10 312 -39 350 -39 C376 -39 479 45 548 119 C540 96 537 78 537 68 C534 -10 605 -39 643 -39 C700 -38 776 78 827 156 C838 173 825 180 814 175 C772 111 690 -4 650 -2 C641 -2 638 8 638 25 C639 66 750 329 835 528 L835 528 Z " />
<glyph glyph-name="Udieresis" unicode="&#xdc;" horiz-adv-x="807" d="M671 893 C642 893 617 866 612 833 C607 800 625 774 651 774 C679 774 705 800 708 833 C715 866 697 893 671 893 L671 893 Z M795 893 C766 893 741 866 736 833 C731 800 749 774 775 774 C803 774 829 800 832 833 C839 866 821 893 795 893 L795 893 Z M840 528 C888 640 853 620 773 691 C721 560 628 335 576 191 C525 125 382 6 365 6 C355 6 352 17 353 33 C354 74 483 385 568 584 C616 696 583 676 501 746 C308 673 73 555 21 467 C-22 392 7 303 85 267 C85 317 99 362 124 402 C175 482 325 604 467 660 C384 453 250 125 249 68 C246 -10 317 -39 355 -39 C381 -39 484 45 553 119 C545 96 542 78 542 68 C539 -10 610 -39 648 -39 C705 -38 781 78 832 156 C843 173 830 180 819 175 C777 111 695 -4 655 -2 C646 -2 643 8 643 25 C644 66 755 329 840 528 L840 528 Z " />
<glyph glyph-name="Yacute" unicode="&#xdd;" horiz-adv-x="784" d="M889 618 C882 641 849 653 802 694 C795 676 785 649 774 618 C704 474 481 48 421 53 C414 53 415 65 418 79 C421 103 432 136 437 149 C479 270 548 433 594 544 C660 696 652 647 540 746 C341 670 77 526 23 434 C-21 357 9 265 90 227 C90 279 103 327 129 367 C182 450 352 591 504 654 C441 500 358 299 320 176 C308 134 297 99 314 61 C329 27 358 0 392 1 C483 1 595 196 683 369 C636 240 588 111 564 45 C526 -57 492 -155 453 -222 C425 -272 393 -305 356 -304 C258 -304 378 -152 384 -117 C386 -100 372 -70 340 -41 C247 -136 177 -334 374 -337 C458 -338 524 -294 569 -224 C604 -170 647 -71 686 32 C726 140 864 509 883 573 C891 597 891 613 889 618 L889 618 Z M798 877 C756 876 713 822 693 788 L730 779 C748 803 796 845 855 852 C847 862 818 877 798 877 L798 877 Z " />
<glyph glyph-name="Thorn" unicode="&#xde;" horiz-adv-x="478" d="M399 506 C364 506 303 423 249 334 C253 346 343 568 347 576 C359 605 364 621 361 633 C356 653 331 663 280 706 C271 683 260 656 249 627 C192 485 25 69 -22 -67 C-37 -113 -48 -147 -48 -160 C-50 -224 4 -258 49 -257 C42 -238 41 -224 44 -199 C46 -191 53 -164 67 -124 C96 -41 144 79 189 191 C251 304 358 476 391 476 C440 476 307 139 214 85 C195 74 177 71 158 77 C171 37 209 0 255 0 C380 0 627 506 399 506 L399 506 Z " />
<glyph glyph-name="germandbls" unicode="&#xdf;" horiz-adv-x="542" d="M443 349 C536 457 618 669 534 730 C514 743 485 746 452 746 C128 749 150 321 1 60 C-50 -30 -81 -31 -119 -41 C-105 -44 -90 -46 -72 -46 C5 -47 68 -6 111 60 C210 212 306 713 444 713 C488 713 489 679 472 618 C451 543 394 430 333 381 C306 381 277 371 247 354 C262 316 296 282 343 282 C364 282 387 295 411 316 C443 249 389 119 235 76 C196 65 158 65 132 84 C141 30 188 4 246 1 C475 -6 591 249 443 349 L443 349 Z " />
<glyph glyph-name="aacute" unicode="&#xe1;" horiz-adv-x="441" d="M455 175 C416 116 350 30 332 30 C324 30 321 41 321 56 C322 91 362 194 414 316 C470 448 463 406 367 489 C340 421 313 354 290 294 C227 183 132 30 100 30 C51 30 184 366 275 419 C295 430 311 434 333 428 C318 468 281 504 234 504 C112 504 -135 0 93 0 C130 0 195 95 251 188 C238 150 229 117 229 96 C227 24 291 0 325 0 C354 0 422 87 469 160 C473 170 464 179 455 175 L455 175 Z M415 631 C373 630 330 576 310 542 L347 533 C365 557 413 599 472 606 C464 616 435 631 415 631 L415 631 Z " />
<glyph glyph-name="acircumflex" unicode="&#xe2;" horiz-adv-x="442" d="M455 175 C416 116 350 30 332 30 C324 30 321 41 321 56 C322 91 362 194 414 316 C470 448 463 406 367 489 C340 421 313 354 290 294 C227 183 132 30 100 30 C51 30 184 366 275 419 C295 430 311 434 333 428 C318 468 281 504 234 504 C112 504 -135 0 93 0 C130 0 195 95 251 188 C238 150 229 117 229 96 C227 24 291 0 325 0 C354 0 422 87 469 160 C473 170 464 179 455 175 L455 175 Z M262 531 C294 535 326 547 362 579 C373 556 390 538 421 537 C412 549 403 575 402 602 C401 612 402 625 404 635 C406 642 398 646 391 647 C382 648 371 645 364 632 C356 620 343 608 332 594 C308 567 282 543 262 531 L262 531 Z " />
<glyph glyph-name="atilde" unicode="&#xe3;" horiz-adv-x="440" d="M455 175 C416 116 350 30 332 30 C324 30 321 41 321 56 C322 91 362 194 414 316 C470 448 463 406 367 489 C340 421 313 354 290 294 C227 183 132 30 100 30 C51 30 184 366 275 419 C295 430 311 434 333 428 C318 468 281 504 234 504 C112 504 -135 0 93 0 C130 0 195 95 251 188 C238 150 229 117 229 96 C227 24 291 0 325 0 C354 0 422 87 469 160 C473 170 464 179 455 175 L455 175 Z M254 608 C227 606 218 577 206 556 C260 579 319 538 367 531 C409 525 408 542 423 572 C374 555 304 614 254 608 L254 608 Z " />
<glyph glyph-name="adieresis" unicode="&#xe4;" horiz-adv-x="442" d="M399 633 C376 633 355 611 352 584 C348 557 362 536 383 536 C406 536 427 557 430 584 C435 611 421 633 399 633 L399 633 Z M304 633 C281 633 260 611 257 584 C253 557 267 536 288 536 C311 536 332 557 335 584 C340 611 326 633 304 633 L304 633 Z M455 175 C416 116 350 30 332 30 C324 30 321 41 321 56 C322 91 362 194 414 316 C470 448 463 406 367 489 C340 421 313 354 290 294 C227 183 132 30 100 30 C51 30 184 366 275 419 C295 430 311 434 333 428 C318 468 281 504 234 504 C112 504 -135 0 93 0 C130 0 195 95 251 188 C238 150 229 117 229 96 C227 24 291 0 325 0 C354 0 422 87 469 160 C473 170 464 179 455 175 L455 175 Z " />
<glyph glyph-name="aring" unicode="&#xe5;" horiz-adv-x="445" d="M455 175 C416 116 350 30 332 30 C324 30 321 41 321 56 C322 91 362 194 414 316 C470 448 463 406 367 489 C340 421 313 354 290 294 C227 183 132 30 100 30 C51 30 184 366 275 419 C295 430 311 434 333 428 C318 468 281 504 234 504 C112 504 -135 0 93 0 C130 0 195 95 251 188 C238 150 229 117 229 96 C227 24 291 0 325 0 C354 0 422 87 469 160 C473 170 464 179 455 175 L455 175 Z M375 620 C319 665 252 560 318 513 C367 478 434 571 375 620 L375 620 Z M367 610 C387 594 343 514 324 526 C301 540 347 625 367 610 L367 610 Z " />
<glyph glyph-name="ccedilla" unicode="&#xe7;" horiz-adv-x="341" d="M351 172 C296 85 183 27 118 30 C95 31 84 43 91 77 C111 181 226 426 296 426 C300 426 301 425 304 425 C301 413 296 400 292 387 C274 335 263 330 261 310 C260 296 267 282 293 258 C335 306 356 349 357 382 C358 395 354 405 348 416 C346 419 343 423 339 427 C309 467 272 503 232 503 C154 503 24 297 1 149 C-12 68 15 26 53 8 C40 -11 31 -28 30 -34 C27 -47 36 -55 51 -89 C65 -85 100 -80 106 -92 C118 -115 30 -128 -3 -124 C22 -146 52 -177 82 -177 C174 -179 165 -41 88 -47 C94 -32 100 -16 109 -1 C205 5 317 75 363 157 C368 168 357 176 351 172 L351 172 Z " />
<glyph glyph-name="egrave" unicode="&#xe8;" horiz-adv-x="342" d="M353 174 C319 109 199 30 119 32 C97 32 85 43 92 78 C97 103 107 135 120 171 C234 158 372 266 365 377 C362 397 356 412 340 433 C315 464 277 505 235 505 C156 505 26 299 2 150 C-15 42 40 0 98 0 C207 0 320 83 365 159 C370 168 360 179 353 174 L353 174 Z M299 427 C303 427 307 427 311 425 C293 338 232 196 128 191 C173 301 247 427 299 427 L299 427 Z M240 631 C220 631 191 616 183 606 C242 599 290 557 308 533 L345 542 C325 576 282 630 240 631 L240 631 Z " />
<glyph glyph-name="eacute" unicode="&#xe9;" horiz-adv-x="340" d="M353 174 C319 109 199 30 119 32 C97 32 85 43 92 78 C97 103 107 135 120 171 C234 158 372 266 365 377 C362 397 356 412 340 433 C315 464 277 505 235 505 C156 505 26 299 2 150 C-15 42 40 0 98 0 C207 0 320 83 365 159 C370 168 360 179 353 174 L353 174 Z M299 427 C303 427 307 427 311 425 C293 338 232 196 128 191 C173 301 247 427 299 427 L299 427 Z M347 631 C305 630 262 576 242 542 L279 533 C297 557 345 599 404 606 C396 616 367 631 347 631 L347 631 Z " />
<glyph glyph-name="ecircumflex" unicode="&#xea;" horiz-adv-x="341" d="M353 174 C319 109 199 30 119 32 C97 32 85 43 92 78 C97 103 107 135 120 171 C234 158 372 266 365 377 C362 397 356 412 340 433 C315 464 277 505 235 505 C156 505 26 299 2 150 C-15 42 40 0 98 0 C207 0 320 83 365 159 C370 168 360 179 353 174 L353 174 Z M299 427 C303 427 307 427 311 425 C293 338 232 196 128 191 C173 301 247 427 299 427 L299 427 Z M184 531 C216 535 248 547 284 579 C295 556 312 538 343 537 C334 549 325 575 324 602 C323 612 324 625 326 635 C328 642 320 646 313 647 C304 648 293 645 286 632 C278 620 265 608 254 594 C230 567 204 543 184 531 L184 531 Z " />
<glyph glyph-name="edieresis" unicode="&#xeb;" horiz-adv-x="342" d="M353 174 C319 109 199 30 119 32 C97 32 85 43 92 78 C97 103 107 135 120 171 C234 158 372 266 365 377 C362 397 356 412 340 433 C315 464 277 505 235 505 C156 505 26 299 2 150 C-15 42 40 0 98 0 C207 0 320 83 365 159 C370 168 360 179 353 174 L353 174 Z M299 427 C303 427 307 427 311 425 C293 338 232 196 128 191 C173 301 247 427 299 427 L299 427 Z M358 633 C335 633 314 611 311 584 C307 557 321 536 342 536 C365 536 386 557 389 584 C394 611 380 633 358 633 L358 633 Z M263 633 C240 633 219 611 216 584 C212 557 226 536 247 536 C270 536 291 557 294 584 C299 611 285 633 263 633 L263 633 Z " />
<glyph glyph-name="igrave" unicode="&#xec;" horiz-adv-x="209" d="M218 174 C179 115 114 31 95 31 C88 31 84 40 85 56 C86 91 125 194 178 315 C233 446 226 406 130 489 L129 487 C64 324 -5 157 -7 95 C-9 25 54 0 88 0 C118 0 185 87 231 159 C235 170 227 179 218 174 L218 174 Z M143 631 C123 631 94 616 86 606 C145 599 193 557 211 533 L248 542 C228 576 185 630 143 631 L143 631 Z " />
<glyph glyph-name="iacute" unicode="&#xed;" horiz-adv-x="210" d="M218 174 C179 115 114 31 95 31 C88 31 84 40 85 56 C86 91 125 194 178 315 C233 446 226 406 130 489 L129 487 C64 324 -5 157 -7 95 C-9 25 54 0 88 0 C118 0 185 87 231 159 C235 170 227 179 218 174 L218 174 Z M272 631 C230 630 187 576 167 542 L204 533 C222 557 270 599 329 606 C321 616 292 631 272 631 L272 631 Z " />
<glyph glyph-name="icircumflex" unicode="&#xee;" horiz-adv-x="206" d="M216 174 C177 115 112 31 93 31 C86 31 82 40 83 56 C84 91 123 194 176 315 C231 446 224 406 128 489 L127 487 C62 324 -7 157 -9 95 C-11 25 52 0 86 0 C116 0 183 87 229 159 C233 170 225 179 216 174 L216 174 Z M104 531 C136 535 168 547 204 579 C215 556 232 538 263 537 C254 549 245 575 244 602 C243 612 244 625 246 635 C248 642 240 646 233 647 C224 648 213 645 206 632 C198 620 185 608 174 594 C150 567 124 543 104 531 L104 531 Z " />
<glyph glyph-name="idieresis" unicode="&#xef;" horiz-adv-x="205" d="M216 174 C177 115 112 31 93 31 C86 31 82 40 83 56 C84 91 123 194 176 315 C231 446 224 406 128 489 L127 487 C62 324 -7 157 -9 95 C-11 25 52 0 86 0 C116 0 183 87 229 159 C233 170 225 179 216 174 L216 174 Z M250 633 C227 633 206 611 203 584 C199 557 213 536 234 536 C257 536 278 557 281 584 C286 611 272 633 250 633 L250 633 Z M155 633 C132 633 111 611 108 584 C104 557 118 536 139 536 C162 536 183 557 186 584 C191 611 177 633 155 633 L155 633 Z " />
<glyph glyph-name="ntilde" unicode="&#xf1;" horiz-adv-x="454" d="M465 174 C426 116 357 31 340 31 C331 31 329 41 329 56 C329 73 334 92 351 136 C378 215 429 317 431 401 C431 434 424 461 407 480 C392 495 371 504 341 504 C302 504 231 402 175 303 C177 308 178 312 180 317 C232 446 238 401 135 490 C93 386 53 287 24 201 C8 155 -2 122 -3 109 C-5 45 48 11 94 13 C86 32 85 45 89 68 C91 77 97 105 112 144 C115 151 118 159 120 168 C178 278 298 474 333 474 C341 474 345 463 343 445 C340 387 280 251 258 183 C243 139 237 118 237 96 C235 24 298 0 332 0 C363 0 433 87 480 159 C482 170 474 179 465 174 L465 174 Z M222 608 C195 606 186 577 174 556 C228 579 287 538 335 531 C377 525 376 542 391 572 C342 555 272 614 222 608 L222 608 Z " />
<glyph glyph-name="ograve" unicode="&#xf2;" horiz-adv-x="385" d="M385 484 C365 510 312 502 310 497 C396 438 235 63 116 33 C102 30 95 30 93 48 C87 115 189 372 266 419 C285 430 302 434 323 428 C306 469 269 504 222 504 C113 504 -74 117 34 22 C48 9 67 1 92 0 C98 0 104 0 109 0 C313 8 493 379 385 484 L385 484 Z M234 631 C214 631 185 616 177 606 C236 599 284 557 302 533 L339 542 C319 576 276 630 234 631 L234 631 Z " />
<glyph glyph-name="oacute" unicode="&#xf3;" horiz-adv-x="387" d="M385 484 C365 510 312 502 310 497 C396 438 235 63 116 33 C102 30 95 30 93 48 C87 115 189 372 266 419 C285 430 302 434 323 428 C306 469 269 504 222 504 C113 504 -74 117 34 22 C48 9 67 1 92 0 C98 0 104 0 109 0 C313 8 493 379 385 484 L385 484 Z M366 631 C324 630 281 576 261 542 L298 533 C316 557 364 599 423 606 C415 616 386 631 366 631 L366 631 Z " />
<glyph glyph-name="ocircumflex" unicode="&#xf4;" horiz-adv-x="387" d="M385 484 C365 510 312 502 310 497 C396 438 235 63 116 33 C102 30 95 30 93 48 C87 115 189 372 266 419 C285 430 302 434 323 428 C306 469 269 504 222 504 C113 504 -74 117 34 22 C48 9 67 1 92 0 C98 0 104 0 109 0 C313 8 493 379 385 484 L385 484 Z M226 531 C258 535 290 547 326 579 C337 556 354 538 385 537 C376 549 367 575 366 602 C365 612 366 625 368 635 C370 642 362 646 355 647 C346 648 335 645 328 632 C320 620 307 608 296 594 C272 567 246 543 226 531 L226 531 Z " />
<glyph glyph-name="otilde" unicode="&#xf5;" horiz-adv-x="380" d="M385 484 C365 510 312 502 310 497 C396 438 235 63 116 33 C102 30 95 30 93 48 C87 115 189 372 266 419 C285 430 302 434 323 428 C306 469 269 504 222 504 C113 504 -74 117 34 22 C48 9 67 1 92 0 C98 0 104 0 109 0 C313 8 493 379 385 484 L385 484 Z M215 608 C188 606 179 577 167 556 C221 579 280 538 328 531 C370 525 369 542 384 572 C335 555 265 614 215 608 L215 608 Z " />
<glyph glyph-name="odieresis" unicode="&#xf6;" horiz-adv-x="387" d="M385 484 C365 510 312 502 310 497 C396 438 235 63 116 33 C102 30 95 30 93 48 C87 115 189 372 266 419 C285 430 302 434 323 428 C306 469 269 504 222 504 C113 504 -74 117 34 22 C48 9 67 1 92 0 C98 0 104 0 109 0 C313 8 493 379 385 484 L385 484 Z M358 633 C335 633 314 611 311 584 C307 557 321 536 342 536 C365 536 386 557 389 584 C394 611 380 633 358 633 L358 633 Z M263 633 C240 633 219 611 216 584 C212 557 226 536 247 536 C270 536 291 557 294 584 C299 611 285 633 263 633 L263 633 Z " />
<glyph glyph-name="divide" unicode="&#xf7;" horiz-adv-x="471" d="M433 406 C387 416 173 396 109 407 C101 343 140 333 158 333 C231 332 365 357 438 341 C452 338 458 334 467 326 C476 354 467 394 433 406 L433 406 Z M269 322 C239 322 211 292 205 255 C201 220 220 190 250 190 C279 190 308 220 314 255 C318 292 299 322 269 322 L269 322 Z M309 430 C339 430 366 460 372 497 C378 533 357 562 327 562 C298 562 269 533 265 497 C259 460 279 430 309 430 L309 430 Z " />
<glyph glyph-name="ugrave" unicode="&#xf9;" horiz-adv-x="450" d="M460 174 C421 116 356 31 338 31 C330 31 326 40 327 56 C328 91 367 193 419 315 C475 446 468 405 372 489 L371 488 C333 388 292 289 265 211 C225 152 120 31 104 31 C95 31 92 40 93 56 C94 91 133 194 185 316 C241 447 234 406 138 489 C137 488 136 487 136 485 C65 324 2 156 1 96 C-1 24 62 0 96 0 C120 0 193 80 245 149 C239 127 235 109 235 96 C233 24 296 0 331 0 C361 0 427 87 474 159 C477 170 469 178 460 174 L460 174 Z M245 631 C225 631 196 616 188 606 C247 599 295 557 313 533 L350 542 C330 576 287 630 245 631 L245 631 Z " />
<glyph glyph-name="uacute" unicode="&#xfa;" horiz-adv-x="450" d="M460 174 C421 116 356 31 338 31 C330 31 326 40 327 56 C328 91 367 193 419 315 C475 446 468 405 372 489 L371 488 C333 388 292 289 265 211 C225 152 120 31 104 31 C95 31 92 40 93 56 C94 91 133 194 185 316 C241 447 234 406 138 489 C137 488 136 487 136 485 C65 324 2 156 1 96 C-1 24 62 0 96 0 C120 0 193 80 245 149 C239 127 235 109 235 96 C233 24 296 0 331 0 C361 0 427 87 474 159 C477 170 469 178 460 174 L460 174 Z M366 631 C324 630 281 576 261 542 L298 533 C316 557 364 599 423 606 C415 616 386 631 366 631 L366 631 Z " />
<glyph glyph-name="ucircumflex" unicode="&#xfb;" horiz-adv-x="448" d="M460 174 C421 116 356 31 338 31 C330 31 326 40 327 56 C328 91 367 193 419 315 C475 446 468 405 372 489 L371 488 C333 388 292 289 265 211 C225 152 120 31 104 31 C95 31 92 40 93 56 C94 91 133 194 185 316 C241 447 234 406 138 489 C137 488 136 487 136 485 C65 324 2 156 1 96 C-1 24 62 0 96 0 C120 0 193 80 245 149 C239 127 235 109 235 96 C233 24 296 0 331 0 C361 0 427 87 474 159 C477 170 469 178 460 174 L460 174 Z M202 531 C234 535 266 547 302 579 C313 556 330 538 361 537 C352 549 343 575 342 602 C341 612 342 625 344 635 C346 642 338 646 331 647 C322 648 311 645 304 632 C296 620 283 608 272 594 C248 567 222 543 202 531 L202 531 Z " />
<glyph glyph-name="udieresis" unicode="&#xfc;" horiz-adv-x="450" d="M460 174 C421 116 356 31 338 31 C330 31 326 40 327 56 C328 91 367 193 419 315 C475 446 468 405 372 489 L371 488 C333 388 292 289 265 211 C225 152 120 31 104 31 C95 31 92 40 93 56 C94 91 133 194 185 316 C241 447 234 406 138 489 C137 488 136 487 136 485 C65 324 2 156 1 96 C-1 24 62 0 96 0 C120 0 193 80 245 149 C239 127 235 109 235 96 C233 24 296 0 331 0 C361 0 427 87 474 159 C477 170 469 178 460 174 L460 174 Z M359 633 C336 633 315 611 312 584 C308 557 322 536 343 536 C366 536 387 557 390 584 C395 611 381 633 359 633 L359 633 Z M264 633 C241 633 220 611 217 584 C213 557 227 536 248 536 C271 536 292 557 295 584 C300 611 286 633 264 633 L264 633 Z " />
<glyph glyph-name="yacute" unicode="&#xfd;" horiz-adv-x="440" d="M451 172 C432 141 377 84 312 54 L312 54 C347 135 393 244 424 315 C478 445 465 409 374 489 C348 420 305 315 264 210 C223 150 119 32 103 32 C95 32 92 40 92 55 C93 89 132 194 184 315 C240 446 234 405 137 489 C137 488 137 488 136 486 C63 328 2 157 -1 95 C-2 25 60 0 95 0 C117 0 182 69 232 134 C211 80 190 27 173 -19 C108 -57 -74 -128 -85 -211 C-86 -224 -82 -235 -69 -243 C-49 -257 -5 -258 34 -248 C92 -235 144 -204 188 -163 C254 -101 265 -61 296 14 L297 15 C371 48 442 112 465 157 C471 167 462 178 451 172 L451 172 Z M67 -184 C45 -200 -23 -239 -47 -217 C-54 -175 38 -119 158 -58 C136 -110 108 -150 67 -184 L67 -184 Z M366 631 C324 630 281 576 261 542 L298 533 C316 557 364 599 423 606 C415 616 386 631 366 631 L366 631 Z " />
<glyph glyph-name="ydieresis" unicode="&#xff;" horiz-adv-x="440" d="M451 172 C432 141 377 84 312 54 L312 54 C347 135 393 244 424 315 C478 445 465 409 374 489 C348 420 305 315 264 210 C223 150 119 32 103 32 C95 32 92 40 92 55 C93 89 132 194 184 315 C240 446 234 405 137 489 C137 488 137 488 136 486 C63 328 2 157 -1 95 C-2 25 60 0 95 0 C117 0 182 69 232 134 C211 80 190 27 173 -19 C108 -57 -74 -128 -85 -211 C-86 -224 -82 -235 -69 -243 C-49 -257 -5 -258 34 -248 C92 -235 144 -204 188 -163 C254 -101 265 -61 296 14 L297 15 C371 48 442 112 465 157 C471 167 462 178 451 172 L451 172 Z M67 -184 C45 -200 -23 -239 -47 -217 C-54 -175 38 -119 158 -58 C136 -110 108 -150 67 -184 L67 -184 Z M345 633 C322 633 301 611 298 584 C294 557 308 536 329 536 C352 536 373 557 376 584 C381 611 367 633 345 633 L345 633 Z M250 633 C227 633 206 611 203 584 C199 557 213 536 234 536 C257 536 278 557 281 584 C286 611 272 633 250 633 L250 633 Z " />
<glyph glyph-name="Cacute" unicode="&#x106;" horiz-adv-x="706" d="M778 877 C736 876 693 822 673 788 L710 779 C728 803 776 845 835 852 C827 862 798 877 778 877 L778 877 Z M642 746 C563 744 439 589 356 416 C221 373 90 315 27 201 C-30 100 -8 -13 115 -37 C78 144 181 251 318 326 C250 144 246 -31 408 -39 C527 -45 661 34 735 155 C745 168 735 180 723 174 C639 38 500 -5 423 5 C332 16 403 228 504 409 C614 452 720 488 778 537 C878 622 736 747 642 746 L642 746 Z M768 574 C718 526 634 496 540 469 C606 575 677 655 725 653 C762 652 811 614 768 574 L768 574 Z " />
<glyph glyph-name="cacute" unicode="&#x107;" horiz-adv-x="339" d="M351 173 C297 87 184 27 117 31 C96 32 84 44 91 78 C112 182 226 426 297 426 C300 426 302 425 304 425 C301 414 297 401 292 389 C274 336 263 330 261 311 C260 298 268 284 294 259 C336 307 356 350 359 383 C359 395 355 405 348 417 C347 420 344 424 341 427 C310 468 273 504 233 504 C154 504 26 298 1 149 C-15 42 39 0 97 0 C196 0 316 72 364 158 C369 169 358 177 351 173 L351 173 Z M344 631 C302 630 259 576 239 542 L276 533 C294 557 342 599 401 606 C393 616 364 631 344 631 L344 631 Z " />
<glyph glyph-name="Ccaron" unicode="&#x10c;" horiz-adv-x="708" d="M815 895 C783 891 751 879 715 847 C704 870 687 888 656 889 C665 877 674 851 675 824 C676 814 675 801 673 791 C671 784 679 780 686 779 C695 778 706 781 713 794 C721 806 734 818 745 832 C769 859 795 883 815 895 L815 895 Z M645 746 C566 744 442 589 359 416 C224 373 93 315 30 201 C-27 100 -5 -13 118 -37 C81 144 184 251 321 326 C253 144 249 -31 411 -39 C530 -45 664 34 738 155 C748 168 738 180 726 174 C642 38 503 -5 426 5 C335 16 406 228 507 409 C617 452 723 488 781 537 C881 622 739 747 645 746 L645 746 Z M771 574 C721 526 637 496 543 469 C609 575 680 655 728 653 C765 652 814 614 771 574 L771 574 Z " />
<glyph glyph-name="ccaron" unicode="&#x10d;" horiz-adv-x="339" d="M351 173 C297 87 184 27 117 31 C96 32 84 44 91 78 C112 182 226 426 297 426 C300 426 302 425 304 425 C301 414 297 401 292 389 C274 336 263 330 261 311 C260 298 268 284 294 259 C336 307 356 350 359 383 C359 395 355 405 348 417 C347 420 344 424 341 427 C310 468 273 504 233 504 C154 504 26 298 1 149 C-15 42 39 0 97 0 C196 0 316 72 364 158 C369 169 358 177 351 173 L351 173 Z M420 648 C388 644 356 632 320 600 C309 623 292 641 261 642 C270 630 279 604 280 577 C281 567 280 554 278 544 C276 537 284 533 291 532 C300 531 311 534 318 547 C326 559 339 571 350 585 C374 612 400 636 420 648 L420 648 Z " />
<glyph glyph-name="Dcaron" unicode="&#x10e;" horiz-adv-x="821" d="M735 746 C686 748 614 650 544 527 C559 568 570 605 578 628 C586 651 585 668 584 672 C575 695 543 707 497 746 C303 673 68 555 16 466 C-28 391 1 303 80 266 C79 317 94 362 118 400 C170 483 323 606 465 661 C426 551 375 405 338 303 C301 201 267 104 228 36 C200 -12 167 -44 131 -43 C35 -42 153 108 159 143 C162 159 147 189 115 216 C23 123 -45 -73 150 -76 C231 -78 298 -33 343 35 C377 88 419 187 458 290 C464 307 471 325 478 343 C568 514 674 695 720 695 C845 696 633 -42 359 46 C376 1 418 -40 472 -38 C785 -31 1034 740 735 746 L735 746 Z M786 895 C754 891 722 879 686 847 C675 870 658 888 627 889 C636 877 645 851 646 824 C647 814 646 801 644 791 C642 784 650 780 657 779 C666 778 677 781 684 794 C692 806 705 818 716 832 C740 859 766 883 786 895 L786 895 Z " />
<glyph glyph-name="Ecaron" unicode="&#x11a;" horiz-adv-x="759" d="M827 895 C795 891 763 879 727 847 C716 870 699 888 668 889 C677 877 686 851 687 824 C688 814 687 801 685 791 C683 784 691 780 698 779 C707 778 718 781 725 794 C733 806 746 818 757 832 C781 859 807 883 827 895 L827 895 Z M765 742 C645 774 317 601 300 462 C299 447 300 433 305 420 C188 379 83 323 30 227 C-27 126 -4 13 119 -10 C79 179 203 288 360 364 C392 347 432 340 463 341 C405 306 328 248 288 180 C206 27 290 -46 418 -39 C532 -33 719 51 792 157 C801 172 787 178 777 175 C711 85 538 4 430 1 C366 -1 332 30 378 108 C434 203 612 304 719 312 C657 373 651 396 630 401 C618 404 576 389 544 384 C523 380 444 367 405 384 C563 455 735 504 818 564 C899 624 853 717 765 742 L765 742 Z M809 601 C731 528 564 497 401 451 C465 543 721 675 804 640 C829 631 828 618 809 601 L809 601 Z " />
<glyph glyph-name="ecaron" unicode="&#x11b;" horiz-adv-x="342" d="M353 174 C319 109 199 30 119 32 C97 32 85 43 92 78 C97 103 107 135 120 171 C234 158 372 266 365 377 C362 397 356 412 340 433 C315 464 277 505 235 505 C156 505 26 299 2 150 C-15 42 40 0 98 0 C207 0 320 83 365 159 C370 168 360 179 353 174 L353 174 Z M299 427 C303 427 307 427 311 425 C293 338 232 196 128 191 C173 301 247 427 299 427 L299 427 Z M407 648 C375 644 343 632 307 600 C296 623 279 641 248 642 C257 630 266 604 267 577 C268 567 267 554 265 544 C263 537 271 533 278 532 C287 531 298 534 305 547 C313 559 326 571 337 585 C361 612 387 636 407 648 L407 648 Z " />
<glyph glyph-name="Lcaron" unicode="&#x13d;" horiz-adv-x="747" d="M931 610 C958 693 904 745 825 746 C665 748 588 583 528 406 C335 356 116 304 29 148 C-28 46 -4 -70 119 -92 C68 155 292 265 508 347 C475 243 445 142 403 74 C342 106 212 103 193 30 C167 -67 358 -71 435 -9 C510 -40 664 -176 759 -184 C882 -193 926 -96 895 -23 C867 -58 795 -70 742 -64 C649 -56 548 17 488 41 C545 108 595 257 648 399 C727 428 895 507 931 610 L931 610 Z M844 711 C895 711 915 661 902 626 C871 544 734 468 666 445 C721 590 778 713 844 711 L844 711 Z M243 5 C237 55 330 49 366 24 C328 -24 247 -27 243 5 L243 5 Z M894 877 C852 876 809 822 789 788 L826 779 C844 803 892 845 951 852 C943 862 914 877 894 877 L894 877 Z " />
<glyph glyph-name="lcaron" unicode="&#x13e;" horiz-adv-x="234" d="M286 571 C342 703 335 662 239 746 C234 739 210 672 204 660 C191 624 175 585 159 545 C87 364 1 138 -1 95 C-3 24 60 0 96 0 C125 0 211 87 257 160 C261 170 252 179 244 174 C204 115 120 31 102 31 C94 31 91 40 92 55 C93 91 234 448 286 571 L286 571 Z M369 871 C327 870 284 816 264 782 L301 773 C319 797 367 839 426 846 C418 856 389 871 369 871 L369 871 Z " />
<glyph glyph-name="Nacute" unicode="&#x143;" horiz-adv-x="811" d="M731 877 C689 876 646 822 626 788 L663 779 C681 803 729 845 788 852 C780 862 751 877 731 877 L731 877 Z M826 176 C783 112 703 -4 662 -2 C653 -2 649 7 650 25 C651 54 707 192 724 236 C768 345 848 526 850 638 C851 671 843 701 826 720 C810 736 788 746 757 746 C722 746 642 669 567 583 C573 600 577 615 582 627 C589 650 589 667 588 671 C579 695 546 705 500 746 C307 672 72 555 19 465 C-23 391 5 303 84 266 C83 317 97 361 122 401 C174 483 327 605 469 661 C430 550 380 405 342 303 C305 201 270 105 231 37 C204 -12 172 -43 135 -43 C39 -42 158 108 163 143 C167 159 151 189 120 216 C28 123 -40 -73 154 -76 C235 -77 302 -33 347 34 C382 87 424 187 462 290 C486 349 514 429 539 497 C619 590 710 681 736 681 C745 681 748 670 747 652 C740 564 641 344 602 242 C584 192 549 108 548 68 C546 -11 617 -39 655 -39 C712 -38 788 79 839 158 C850 174 838 179 826 176 L826 176 Z " />
<glyph glyph-name="nacute" unicode="&#x144;" horiz-adv-x="460" d="M470 174 C431 116 362 31 345 31 C336 31 334 41 334 56 C334 73 339 92 356 136 C383 215 434 317 436 401 C436 434 429 461 412 480 C397 495 376 504 346 504 C307 504 236 402 180 303 C182 308 183 312 185 317 C237 446 243 401 140 490 C98 386 58 287 29 201 C13 155 3 122 2 109 C0 45 53 11 99 13 C91 32 90 45 94 68 C96 77 102 105 117 144 C120 151 123 159 125 168 C183 278 303 474 338 474 C346 474 350 463 348 445 C345 387 285 251 263 183 C248 139 242 118 242 96 C240 24 303 0 337 0 C368 0 438 87 485 159 C487 170 479 179 470 174 L470 174 Z M241 608 C214 606 205 577 193 556 C247 579 306 538 354 531 C396 525 395 542 410 572 C361 555 291 614 241 608 L241 608 Z " />
<glyph glyph-name="Ncaron" unicode="&#x147;" horiz-adv-x="812" d="M779 895 C747 891 715 879 679 847 C668 870 651 888 620 889 C629 877 638 851 639 824 C640 814 639 801 637 791 C635 784 643 780 650 779 C659 778 670 781 677 794 C685 806 698 818 709 832 C733 859 759 883 779 895 L779 895 Z M826 176 C783 112 703 -4 662 -2 C653 -2 649 7 650 25 C651 54 707 192 724 236 C768 345 848 526 850 638 C851 671 843 701 826 720 C810 736 788 746 757 746 C722 746 642 669 567 583 C573 600 577 615 582 627 C589 650 589 667 588 671 C579 695 546 705 500 746 C307 672 72 555 19 465 C-23 391 5 303 84 266 C83 317 97 361 122 401 C174 483 327 605 469 661 C430 550 380 405 342 303 C305 201 270 105 231 37 C204 -12 172 -43 135 -43 C39 -42 158 108 163 143 C167 159 151 189 120 216 C28 123 -40 -73 154 -76 C235 -77 302 -33 347 34 C382 87 424 187 462 290 C486 349 514 429 539 497 C619 590 710 681 736 681 C745 681 748 670 747 652 C740 564 641 344 602 242 C584 192 549 108 548 68 C546 -11 617 -39 655 -39 C712 -38 788 79 839 158 C850 174 838 179 826 176 L826 176 Z " />
<glyph glyph-name="ncaron" unicode="&#x148;" horiz-adv-x="457" d="M468 174 C429 116 360 31 343 31 C334 31 332 41 332 56 C332 73 337 92 354 136 C381 215 432 317 434 401 C434 434 427 461 410 480 C395 495 374 504 344 504 C305 504 234 402 178 303 C180 308 181 312 183 317 C235 446 241 401 138 490 C96 386 56 287 27 201 C11 155 1 122 0 109 C-2 45 51 11 97 13 C89 32 88 45 92 68 C94 77 100 105 115 144 C118 151 121 159 123 168 C181 278 301 474 336 474 C344 474 348 463 346 445 C343 387 283 251 261 183 C246 139 240 118 240 96 C238 24 301 0 335 0 C366 0 436 87 483 159 C485 170 477 179 468 174 L468 174 Z M389 648 C357 644 325 632 289 600 C278 623 261 641 230 642 C239 630 248 604 249 577 C250 567 249 554 247 544 C245 537 253 533 260 532 C269 531 280 534 287 547 C295 559 308 571 319 585 C343 612 369 636 389 648 L389 648 Z " />
<glyph glyph-name="Ohungarumlaut" unicode="&#x150;" horiz-adv-x="772" d="M766 746 C710 746 616 693 561 623 C553 628 540 632 534 631 C529 631 523 628 515 626 C322 552 70 414 19 325 C-24 250 5 162 83 125 C83 176 96 221 122 261 C160 323 267 417 381 486 C247 285 140 -54 394 -40 C722 -23 1014 746 766 746 L766 746 Z M378 -3 C253 -1 524 567 634 569 C623 583 606 596 593 606 C612 634 698 704 734 670 C815 595 543 -6 378 -3 L378 -3 Z M773 877 C731 876 688 822 668 788 L705 779 C723 803 771 845 830 852 C822 862 793 877 773 877 L773 877 Z M905 877 C863 876 820 822 800 788 L837 779 C855 803 903 845 962 852 C954 862 925 877 905 877 L905 877 Z " />
<glyph glyph-name="ohungarumlaut" unicode="&#x151;" horiz-adv-x="387" d="M385 484 C365 510 312 502 310 497 C396 438 235 63 116 33 C102 30 95 30 93 48 C87 115 189 372 266 419 C285 430 302 434 323 428 C306 469 269 504 222 504 C113 504 -74 117 34 22 C48 9 67 1 92 0 C98 0 104 0 109 0 C313 8 493 379 385 484 L385 484 Z M279 629 C237 628 194 574 174 540 L211 531 C229 555 277 597 336 604 C328 614 299 629 279 629 L279 629 Z M411 629 C369 628 326 574 306 540 L343 531 C361 555 409 597 468 604 C460 614 431 629 411 629 L411 629 Z " />
<glyph glyph-name="oe" unicode="&#x153;" horiz-adv-x="610" d="M622 173 C589 108 469 30 387 30 C366 30 354 43 361 77 C366 102 376 135 391 170 C503 157 640 263 634 376 C631 395 626 410 608 431 C583 464 546 504 503 504 C477 504 443 479 410 442 C405 458 397 472 385 484 C364 510 311 500 310 497 C397 438 234 61 117 32 C102 28 95 28 93 47 C88 115 188 373 266 420 C286 429 303 435 322 427 C307 468 270 504 223 504 C112 504 -75 116 34 20 C47 9 67 0 93 -1 C97 -1 103 -1 110 -1 C167 1 223 32 272 79 C282 23 324 -1 368 -1 C477 -1 590 81 634 157 C639 168 628 177 622 173 L622 173 Z M567 426 C573 426 577 426 579 424 C562 335 501 195 397 190 C442 300 517 427 567 426 L567 426 Z " />
<glyph glyph-name="Racute" unicode="&#x154;" horiz-adv-x="793" d="M703 877 C661 876 618 822 598 788 L635 779 C653 803 701 845 760 852 C752 862 723 877 703 877 L703 877 Z M810 168 C776 110 699 16 665 15 C616 13 562 126 539 235 C544 234 548 234 553 234 C684 234 966 753 724 747 C691 747 621 656 557 554 C567 585 575 610 581 628 C588 651 588 667 587 671 C578 695 546 707 498 746 C306 672 70 554 17 466 C-26 390 4 302 82 266 C81 316 95 361 120 401 C172 483 325 606 468 661 C429 550 378 406 340 302 C303 201 268 104 230 36 C203 -12 170 -44 133 -43 C37 -43 156 107 162 142 C165 158 150 188 118 216 C26 123 -42 -74 152 -77 C233 -79 301 -34 345 34 C370 73 400 135 428 206 C461 76 532 -40 622 -39 C703 -39 776 70 831 162 C835 173 813 179 810 168 L810 168 Z M719 695 C769 695 649 440 547 345 C528 328 496 309 468 309 C481 344 495 383 509 422 C585 545 688 695 719 695 L719 695 Z M461 289 C461 289 461 289 461 290 C461 289 461 289 461 289 C461 289 461 289 461 289 L461 289 Z " />
<glyph glyph-name="racute" unicode="&#x155;" horiz-adv-x="342" d="M341 504 C302 503 231 400 175 302 C177 308 179 311 181 317 C233 446 239 400 136 490 C94 386 54 287 24 201 C8 154 -2 121 -2 107 C-4 44 49 10 94 12 C86 31 86 44 90 68 C91 77 98 104 113 142 C115 150 118 158 121 166 C179 276 299 474 334 474 C335 474 336 474 336 474 C332 459 327 442 321 426 C288 332 245 339 311 275 C360 323 391 384 393 419 C395 448 372 467 341 504 L341 504 Z M334 631 C292 630 249 576 229 542 L266 533 C284 557 332 599 391 606 C383 616 354 631 334 631 L334 631 Z " />
<glyph glyph-name="Rcaron" unicode="&#x158;" horiz-adv-x="785" d="M782 895 C750 891 718 879 682 847 C671 870 654 888 623 889 C632 877 641 851 642 824 C643 814 642 801 640 791 C638 784 646 780 653 779 C662 778 673 781 680 794 C688 806 701 818 712 832 C736 859 762 883 782 895 L782 895 Z M801 168 C767 110 704 16 670 15 C621 13 567 126 544 235 C549 234 553 234 558 234 C689 234 971 753 729 747 C696 747 626 656 562 554 C572 585 580 610 586 628 C593 651 593 667 592 671 C583 695 551 707 503 746 C311 672 75 554 22 466 C-21 390 9 302 87 266 C86 316 100 361 125 401 C177 483 330 606 473 661 C434 550 383 406 345 302 C308 201 273 104 235 36 C208 -12 175 -44 138 -43 C42 -43 161 107 167 142 C170 158 155 188 123 216 C31 123 -37 -74 157 -77 C238 -79 306 -34 350 34 C375 73 405 135 433 206 C466 76 537 -40 627 -39 C708 -39 767 70 822 162 C826 173 804 179 801 168 L801 168 Z M724 695 C774 695 654 440 552 345 C533 328 501 309 473 309 C486 344 500 383 514 422 C590 545 693 695 724 695 L724 695 Z M466 289 C466 289 466 289 466 290 C466 289 466 289 466 289 C466 289 466 289 466 289 L466 289 Z " />
<glyph glyph-name="rcaron" unicode="&#x159;" horiz-adv-x="342" d="M340 504 C301 503 230 400 174 302 C176 308 178 311 180 317 C232 446 238 400 135 490 C93 386 53 287 23 201 C7 154 -3 121 -3 107 C-5 44 48 10 93 12 C85 31 85 44 89 68 C90 77 97 104 112 142 C114 150 117 158 120 166 C178 276 298 474 333 474 C334 474 335 474 335 474 C331 459 326 442 320 426 C287 332 244 339 310 275 C359 323 390 384 392 419 C394 448 371 467 340 504 L340 504 Z M371 648 C339 644 307 632 271 600 C260 623 243 641 212 642 C221 630 230 604 231 577 C232 567 231 554 229 544 C227 537 235 533 242 532 C251 531 262 534 269 547 C277 559 290 571 301 585 C325 612 351 636 371 648 L371 648 Z " />
<glyph glyph-name="Sacute" unicode="&#x15a;" horiz-adv-x="915" d="M831 747 C765 746 695 732 656 696 C597 641 625 562 648 501 C453 434 22 312 4 59 C-1 -7 42 -81 125 -86 C80 247 427 363 667 453 C701 363 752 222 747 138 C742 64 686 8 605 8 C582 8 560 13 542 26 C507 58 603 173 611 204 C614 220 602 250 571 277 C435 148 424 -40 636 -40 C762 -40 869 23 878 147 C886 243 829 390 792 494 C1011 580 1013 750 831 747 L831 747 Z M778 540 C763 582 739 659 783 696 C794 705 809 710 825 713 C945 737 990 608 778 540 L778 540 Z M907 877 C865 876 822 822 802 788 L839 779 C857 803 905 845 964 852 C956 862 927 877 907 877 L907 877 Z " />
<glyph glyph-name="sacute" unicode="&#x15b;" horiz-adv-x="348" d="M334 491 C280 516 143 509 118 450 C85 377 201 228 191 114 C188 65 157 31 101 31 C81 31 68 35 50 49 C65 142 127 159 50 216 C26 188 -10 126 -9 89 C-8 66 5 47 25 32 C51 11 85 0 121 0 C206 0 290 43 296 122 C307 237 203 391 227 454 C242 489 300 482 331 471 C329 459 324 447 320 430 C306 382 298 384 296 365 C294 349 298 337 330 308 C368 357 384 390 384 422 C384 454 361 481 334 491 L334 491 Z M330 631 C288 630 245 576 225 542 L262 533 C280 557 328 599 387 606 C379 616 350 631 330 631 L330 631 Z " />
<glyph glyph-name="Scaron" unicode="&#x160;" horiz-adv-x="902" d="M825 747 C759 746 689 732 650 696 C591 641 619 562 642 501 C447 434 16 312 -2 59 C-7 -7 36 -81 119 -86 C74 247 421 363 661 453 C695 363 746 222 741 138 C736 64 680 8 599 8 C576 8 554 13 536 26 C501 58 597 173 605 204 C608 220 596 250 565 277 C429 148 418 -40 630 -40 C756 -40 863 23 872 147 C880 243 823 390 786 494 C1005 580 1007 750 825 747 L825 747 Z M772 540 C757 582 733 659 777 696 C788 705 803 710 819 713 C939 737 984 608 772 540 L772 540 Z M956 895 C924 891 892 879 856 847 C845 870 828 888 797 889 C806 877 815 851 816 824 C817 814 816 801 814 791 C812 784 820 780 827 779 C836 778 847 781 854 794 C862 806 875 818 886 832 C910 859 936 883 956 895 L956 895 Z " />
<glyph glyph-name="scaron" unicode="&#x161;" horiz-adv-x="351" d="M401 652 C369 648 337 636 301 604 C290 627 273 645 242 646 C260 618 265 580 259 548 C257 541 265 537 272 536 C281 535 292 538 299 551 C327 590 362 629 401 652 L401 652 Z M334 491 C280 516 143 509 118 450 C85 377 201 228 191 114 C188 65 157 31 101 31 C81 31 68 35 50 49 C65 142 127 159 50 216 C26 188 -10 126 -9 89 C-8 66 5 47 25 32 C51 11 85 0 121 0 C206 0 290 43 296 122 C307 237 203 391 227 454 C242 489 300 482 331 471 C329 459 324 447 320 430 C306 382 298 384 296 365 C294 349 298 337 330 308 C368 357 384 390 384 422 C384 454 361 481 334 491 L334 491 Z " />
<glyph glyph-name="Tcaron" unicode="&#x164;" horiz-adv-x="621" d="M1159 878 C1129 837 1091 810 1049 791 C952 749 791 752 627 746 C423 740 78 725 7 483 C-18 398 10 294 120 274 C109 329 114 384 129 435 C194 649 383 685 580 677 C585 677 591 676 595 676 C556 569 509 432 466 314 C427 210 392 112 352 42 C324 -8 290 -41 253 -41 C154 -40 276 114 282 151 C284 167 270 198 237 226 C143 131 73 -71 273 -75 C356 -76 425 -30 471 40 C506 94 549 197 590 302 C631 411 677 539 699 605 C706 630 705 646 704 651 C702 658 697 664 691 669 C845 656 994 636 1093 679 C1172 713 1200 802 1159 878 L1159 878 Z M793 895 C761 891 729 879 693 847 C682 870 665 888 634 889 C643 877 652 851 653 824 C654 814 653 801 651 791 C649 784 657 780 664 779 C673 778 684 781 691 794 C699 806 712 818 723 832 C747 859 773 883 793 895 L793 895 Z " />
<glyph glyph-name="tcaron" unicode="&#x165;" horiz-adv-x="234" d="M256 489 C258 498 262 506 266 514 C309 617 281 596 207 661 C188 614 164 553 138 489 L85 489 C76 485 73 475 57 442 L120 442 C59 292 0 136 -1 96 C-2 54 20 27 44 14 C59 6 86 -4 102 2 C143 15 214 92 258 158 C260 169 253 178 244 173 C226 146 106 1 92 38 C91 43 90 49 91 57 C92 89 165 275 236 442 L297 442 C308 451 315 465 325 489 L256 489 Z M336 784 C294 783 251 729 231 695 L268 686 C286 710 334 752 393 759 C385 769 356 784 336 784 L336 784 Z " />
<glyph glyph-name="uring" unicode="&#x16f;" horiz-adv-x="451" d="M330 620 C274 665 207 560 273 513 C322 478 389 571 330 620 L330 620 Z M322 610 C342 594 298 514 279 526 C256 540 302 625 322 610 L322 610 Z M460 174 C421 116 356 31 338 31 C330 31 326 40 327 56 C328 91 367 193 419 315 C475 446 468 405 372 489 L371 488 C333 388 292 289 265 211 C225 152 120 31 104 31 C95 31 92 40 93 56 C94 91 133 194 185 316 C241 447 234 406 138 489 C137 488 136 487 136 485 C65 324 2 156 1 96 C-1 24 62 0 96 0 C120 0 193 80 245 149 C239 127 235 109 235 96 C233 24 296 0 331 0 C361 0 427 87 474 159 C477 170 469 178 460 174 L460 174 Z " />
<glyph glyph-name="Uhungarumlaut" unicode="&#x170;" horiz-adv-x="803" d="M719 877 C677 876 634 822 614 788 L651 779 C669 803 717 845 776 852 C768 862 739 877 719 877 L719 877 Z M851 877 C809 876 766 822 746 788 L783 779 C801 803 849 845 908 852 C900 862 871 877 851 877 L851 877 Z M840 528 C888 640 853 620 773 691 C721 560 628 335 576 191 C525 125 382 6 365 6 C355 6 352 17 353 33 C354 74 483 385 568 584 C616 696 583 676 501 746 C308 673 73 555 21 467 C-22 392 7 303 85 267 C85 317 99 362 124 402 C175 482 325 604 467 660 C384 453 250 125 249 68 C246 -10 317 -39 355 -39 C381 -39 484 45 553 119 C545 96 542 78 542 68 C539 -10 610 -39 648 -39 C705 -38 781 78 832 156 C843 173 830 180 819 175 C777 111 695 -4 655 -2 C646 -2 643 8 643 25 C644 66 755 329 840 528 L840 528 Z " />
<glyph glyph-name="Ydieresis" unicode="&#x178;" horiz-adv-x="779" d="M885 618 C878 641 845 653 798 694 C791 676 781 649 770 618 C700 474 477 48 417 53 C410 53 411 65 414 79 C417 103 428 136 433 149 C475 270 544 433 590 544 C656 696 648 647 536 746 C337 670 73 526 19 434 C-25 357 5 265 86 227 C86 279 99 327 125 367 C178 450 348 591 500 654 C437 500 354 299 316 176 C304 134 293 99 310 61 C325 27 354 0 388 1 C479 1 591 196 679 369 C632 240 584 111 560 45 C522 -57 488 -155 449 -222 C421 -272 389 -305 352 -304 C254 -304 374 -152 380 -117 C382 -100 368 -70 336 -41 C243 -136 173 -334 370 -337 C454 -338 520 -294 565 -224 C600 -170 643 -71 682 32 C722 140 860 509 879 573 C887 597 887 613 885 618 L885 618 Z M683 905 C651 905 622 874 617 837 C611 800 631 770 661 770 C693 770 722 800 726 837 C733 874 713 905 683 905 L683 905 Z M826 905 C794 905 765 874 760 837 C754 800 774 770 804 770 C836 770 865 800 869 837 C876 874 856 905 826 905 L826 905 Z " />
<glyph glyph-name="Zacute" unicode="&#x179;" horiz-adv-x="572" d="M587 176 C551 167 498 148 463 137 C471 203 447 257 371 257 C487 333 720 587 639 694 C519 848 45 627 1 425 C-14 357 16 282 101 271 C37 445 424 765 520 676 C596 607 314 302 203 260 C186 252 180 252 177 249 C174 246 170 222 165 207 C237 232 366 199 331 94 C235 60 -195 -142 -124 -270 C-93 -324 -6 -319 46 -306 C240 -260 417 -46 454 96 C490 112 544 136 579 146 C601 151 603 179 587 176 L587 176 Z M10 -261 C-15 -265 -65 -272 -79 -250 C-128 -162 250 32 322 54 C282 -49 140 -238 10 -261 L10 -261 Z M541 877 C499 876 456 822 436 788 L473 779 C491 803 539 845 598 852 C590 862 561 877 541 877 L541 877 Z " />
<glyph glyph-name="zacute" unicode="&#x17a;" horiz-adv-x="303" d="M333 171 C315 143 277 104 226 73 C235 120 212 167 171 190 C262 241 365 398 330 469 C295 541 138 487 97 447 C60 411 80 343 91 304 C128 319 144 333 147 347 C151 369 143 403 155 448 C198 458 220 447 227 425 C248 362 145 204 44 193 C37 193 27 177 19 159 C108 164 128 78 113 35 C110 26 109 19 107 12 L80 -2 C15 -38 -168 -113 -179 -196 C-181 -217 -166 -227 -149 -233 C-140 -236 -130 -237 -120 -238 C-100 -241 -75 -237 -53 -232 C39 -210 120 -148 175 -62 C192 -34 211 1 220 37 C278 71 326 118 345 155 C350 164 342 176 333 171 L333 171 Z M-98 -203 C-115 -207 -125 -206 -132 -204 C-140 -200 -142 -197 -140 -188 C-127 -148 -43 -96 65 -41 L93 -27 C58 -115 -5 -181 -98 -203 L-98 -203 Z M302 631 C260 630 217 576 197 542 L234 533 C252 557 300 599 359 606 C351 616 322 631 302 631 L302 631 Z " />
<glyph glyph-name="zdotaccent" unicode="&#x17c;" horiz-adv-x="327" d="M336 172 C318 143 280 104 229 73 C238 120 215 168 172 191 C265 242 368 398 333 469 C298 541 140 487 99 447 C60 411 80 344 91 305 C130 320 146 334 149 347 C153 369 145 403 157 448 C199 458 223 447 230 425 C251 362 147 205 44 194 C37 194 27 178 19 160 C110 165 130 78 115 35 C112 24 111 17 109 10 L80 -4 C15 -40 -167 -114 -178 -197 C-180 -218 -165 -228 -148 -234 C-139 -237 -129 -238 -119 -239 C-99 -242 -74 -238 -52 -233 C39 -211 122 -149 176 -63 C193 -36 214 -1 223 37 C281 71 329 118 348 156 C353 165 345 177 336 172 L336 172 Z M-97 -204 C-114 -208 -124 -207 -131 -205 C-139 -201 -141 -198 -139 -189 C-126 -149 -42 -97 65 -43 L95 -29 C58 -116 -5 -182 -97 -204 L-97 -204 Z M261 633 C238 633 217 611 214 584 C210 557 224 536 245 536 C268 536 289 557 292 584 C297 611 283 633 261 633 L261 633 Z " />
<glyph glyph-name="Zcaron" unicode="&#x17d;" horiz-adv-x="560" d="M590 176 C554 167 501 148 466 137 C474 203 450 257 374 257 C490 333 723 587 642 694 C522 848 48 627 4 425 C-11 357 19 282 104 271 C40 445 427 765 523 676 C599 607 317 302 206 260 C189 252 183 252 180 249 C177 246 173 222 168 207 C240 232 369 199 334 94 C238 60 -192 -142 -121 -270 C-90 -324 -3 -319 49 -306 C243 -260 420 -46 457 96 C493 112 547 136 582 146 C604 151 606 179 590 176 L590 176 Z M13 -261 C-12 -265 -62 -272 -76 -250 C-125 -162 253 32 325 54 C285 -49 143 -238 13 -261 L13 -261 Z M618 895 C586 891 554 879 518 847 C507 870 490 888 459 889 C474 871 482 821 476 791 C472 776 507 775 516 794 C541 826 588 878 618 895 L618 895 Z " />
<glyph glyph-name="zcaron" unicode="&#x17e;" horiz-adv-x="311" d="M325 175 C308 148 270 109 220 79 C229 125 206 171 166 194 C256 244 357 398 323 468 C288 539 134 486 94 446 C57 411 77 345 88 306 C124 321 140 335 143 348 C147 370 139 403 151 447 C192 457 214 446 221 425 C242 363 141 208 42 197 C35 197 25 181 17 164 C105 169 124 84 110 41 C107 33 106 26 104 19 L77 5 C13 -31 -167 -103 -178 -185 C-180 -206 -165 -216 -148 -222 C-140 -225 -130 -226 -120 -227 C-100 -230 -76 -226 -54 -221 C37 -199 117 -138 170 -53 C187 -27 205 8 214 43 C271 77 319 123 337 160 C342 169 334 180 325 175 L325 175 Z M-98 -192 C-115 -196 -125 -195 -132 -193 C-140 -189 -142 -186 -140 -177 C-127 -138 -44 -87 62 -33 L90 -20 C55 -105 -7 -170 -98 -192 L-98 -192 Z M346 648 C314 644 282 632 246 600 C235 623 218 641 187 642 C205 614 210 576 204 544 C200 529 235 528 244 547 C272 586 307 625 346 648 L346 648 Z " />
<glyph glyph-name="circumflex" unicode="&#x2c6;" horiz-adv-x="194" d="M16 573 C48 577 80 589 116 621 C127 598 144 580 175 579 C166 591 157 617 156 644 C155 654 156 667 158 677 C160 684 152 688 145 689 C136 690 125 687 118 674 C110 662 97 650 86 636 C62 609 36 585 16 573 L16 573 Z " />
<glyph glyph-name="tilde" unicode="&#x2dc;" horiz-adv-x="265" d="M75 657 C48 655 39 626 27 605 C81 628 140 587 188 580 C230 574 229 591 244 621 C195 604 125 663 75 657 L75 657 Z " />
<glyph glyph-name="endash" unicode="&#x2013;" horiz-adv-x="469" d="M424 420 C386 430 203 410 148 421 C142 360 175 350 190 350 C254 349 366 373 430 357 C441 355 446 352 453 343 C461 370 453 408 424 420 L424 420 Z " />
<glyph glyph-name="emdash" unicode="&#x2014;" horiz-adv-x="668" d="M588 424 C522 436 201 414 105 425 C94 357 152 346 179 346 C291 344 487 372 599 353 C619 351 628 348 639 338 C654 368 639 412 588 424 L588 424 Z " />
<glyph glyph-name="quoteleft" unicode="&#x2018;" horiz-adv-x="131" d="M122 576 C147 576 173 598 179 624 C181 644 176 660 160 670 C157 704 184 732 215 742 C111 786 27 576 122 576 L122 576 Z " />
<glyph glyph-name="quoteright" unicode="&#x2019;" horiz-adv-x="217" d="M215 746 C190 746 164 724 158 698 C156 678 161 662 177 652 C180 618 153 590 122 580 C226 536 310 746 215 746 L215 746 Z " />
<glyph glyph-name="quotesinglbase" unicode="&#x201a;" horiz-adv-x="177" d="M35 135 C10 135 -16 113 -22 87 C-24 67 -19 51 -3 41 C0 7 -27 -21 -58 -31 C46 -75 130 135 35 135 L35 135 Z " />
<glyph glyph-name="quotedblleft" unicode="&#x201c;" horiz-adv-x="259" d="M122 576 C147 576 173 598 179 624 C181 644 176 660 160 670 C157 704 184 732 215 742 C111 786 27 576 122 576 L122 576 Z M249 576 C274 576 300 598 306 624 C308 644 303 660 287 670 C284 704 311 732 342 742 C238 786 154 576 249 576 L249 576 Z " />
<glyph glyph-name="quotedblright" unicode="&#x201d;" horiz-adv-x="333" d="M215 746 C190 746 164 724 158 698 C156 678 161 662 177 652 C180 618 153 590 122 580 C226 536 310 746 215 746 L215 746 Z M344 746 C319 746 293 724 287 698 C285 678 290 662 306 652 C309 618 282 590 251 580 C355 536 439 746 344 746 L344 746 Z " />
<glyph glyph-name="quotedblbase" unicode="&#x201e;" horiz-adv-x="268" d="M45 135 C20 135 -6 113 -12 87 C-14 67 -9 51 7 41 C10 7 -17 -21 -48 -31 C56 -75 140 135 45 135 L45 135 Z M172 135 C147 135 121 113 115 87 C113 67 118 51 134 41 C137 7 110 -21 79 -31 C183 -75 267 135 172 135 L172 135 Z " />
<glyph glyph-name="bullet" unicode="&#x2022;" horiz-adv-x="350" d="M187 483 C131 483 81 429 72 365 C62 301 97 249 149 249 C204 249 254 301 261 365 C273 429 239 483 187 483 L187 483 Z " />
<glyph glyph-name="ellipsis" unicode="&#x2026;" horiz-adv-x="505" d="M68 135 C36 135 7 104 2 67 C-4 30 16 0 46 0 C78 0 107 30 111 67 C118 104 98 135 68 135 L68 135 Z M223 135 C191 135 162 104 157 67 C151 30 171 0 201 0 C233 0 262 30 266 67 C273 104 253 135 223 135 L223 135 Z M379 135 C347 135 318 104 313 67 C307 30 327 0 357 0 C389 0 418 30 422 67 C429 104 409 135 379 135 L379 135 Z " />
<glyph glyph-name="guilsinglleft" unicode="&#x2039;" horiz-adv-x="377" d="M387 697 C334 629 208 508 91 395 C121 283 154 163 155 94 C237 106 223 157 218 178 C210 217 180 304 151 395 C250 486 342 555 381 595 C401 614 419 651 387 697 L387 697 Z " />
<glyph glyph-name="guilsinglright" unicode="&#x203a;" horiz-adv-x="447" d="M123 94 C176 162 302 283 419 396 C389 508 356 628 355 697 C273 685 287 634 292 613 C300 574 330 487 359 396 C260 305 168 236 129 196 C109 177 91 140 123 94 L123 94 Z " />
<glyph glyph-name="fraction" unicode="&#x2044;" horiz-adv-x="315" d="M418 823 C365 629 -116 -123 73 -154 C45 -47 397 535 466 680 C482 712 514 792 418 823 L418 823 Z " />
<glyph glyph-name="Euro" unicode="&#x20ac;" horiz-adv-x="698" d="M655 696 C620 726 574 747 534 746 C456 745 330 589 247 416 L245 411 C191 411 137 414 102 426 C93 367 133 355 150 354 C170 354 194 354 221 356 L209 325 C205 318 203 311 201 304 C164 305 131 309 106 318 C97 257 136 246 153 245 C163 245 172 245 183 245 C143 94 160 -35 300 -41 C418 -47 536 35 625 151 C635 163 622 179 610 171 C506 50 390 -6 315 2 C248 9 266 121 319 251 C362 251 404 251 435 243 C449 239 455 236 464 228 C473 253 465 291 432 305 C416 309 383 308 342 306 C351 324 360 342 368 360 C391 358 414 357 431 352 C445 349 451 346 460 337 C469 362 461 400 429 413 C422 415 411 415 399 415 L432 469 C498 574 570 656 617 654 C634 654 652 646 664 635 C661 621 656 608 651 593 C629 533 617 525 615 503 C613 487 623 472 653 443 C702 498 726 548 728 587 C730 624 681 673 655 696 L655 696 Z " />
<glyph glyph-name="minus" unicode="&#x2212;" horiz-adv-x="562" d="M502 424 C450 436 195 414 119 425 C111 357 157 346 178 346 C267 344 422 372 511 353 C526 351 534 348 542 338 C554 368 542 412 502 424 L502 424 Z " />
<glyph glyph-name="f_f" unicode="&#xfb00;" horiz-adv-x="580" d="M737 679 C731 688 724 695 717 702 C693 728 666 747 638 746 C581 743 510 630 442 490 C383 490 324 490 266 490 C318 592 369 668 407 668 C410 668 414 668 417 667 C413 654 409 640 405 627 C386 578 385 582 380 564 C375 548 382 533 412 505 C456 553 470 587 472 621 C473 642 462 657 443 679 C436 688 429 695 423 702 C398 728 371 747 344 746 C287 743 216 630 148 490 L97 490 C89 487 86 476 70 444 L127 444 C38 251 -37 29 -51 -13 C-68 -59 -77 -93 -77 -107 C-79 -170 -26 -204 19 -202 C171 -182 285 257 242 443 L243 444 C302 444 361 444 421 444 C332 251 258 29 243 -13 C227 -59 218 -93 218 -107 C216 -170 269 -204 313 -202 C465 -182 579 257 536 443 L537 444 L603 444 C615 452 622 467 632 490 L560 490 C613 592 664 668 702 668 C705 668 708 668 711 667 C708 654 704 640 699 627 C681 578 673 572 668 554 C663 538 670 524 700 495 C744 545 765 587 767 621 C768 642 757 657 737 679 L737 679 Z M13 -171 C13 -163 13 -155 14 -146 C15 -137 23 -111 37 -71 C46 -47 132 204 225 406 C248 205 120 -160 13 -171 L13 -171 Z M306 -171 C306 -163 306 -155 308 -146 C309 -137 317 -111 331 -71 C340 -47 426 204 519 406 C542 205 414 -160 306 -171 L306 -171 Z " />
<glyph glyph-name="f_i" unicode="&#xfb01;" horiz-adv-x="517" d="M551 659 C516 659 483 624 477 583 C470 540 494 505 529 505 C563 505 597 540 603 583 C609 624 586 659 551 659 L551 659 Z M530 175 C491 116 426 30 408 30 C400 30 397 40 397 56 C398 90 438 196 490 317 C546 449 537 407 442 491 L434 491 L259 491 C313 592 364 668 403 668 C405 668 408 668 411 667 C408 654 404 640 399 627 C382 579 379 583 374 564 C369 548 376 534 406 505 C450 555 465 587 467 621 C468 642 456 657 438 679 C431 688 425 695 418 702 C393 728 366 747 339 746 C281 743 208 629 141 491 L91 491 C82 487 78 477 63 444 L120 444 C32 251 -44 27 -58 -15 C-74 -60 -84 -94 -85 -108 C-86 -171 -32 -205 13 -203 C164 -183 279 257 235 443 L236 444 L424 444 C363 294 306 153 305 95 C303 23 366 0 401 0 C431 0 497 87 544 161 C548 172 539 180 530 175 L530 175 Z M6 -172 C6 -164 6 -156 8 -147 C9 -138 16 -111 31 -72 C39 -47 125 204 218 406 C241 205 114 -161 6 -172 L6 -172 Z " />
<glyph glyph-name="f_l" unicode="&#xfb02;" horiz-adv-x="542" d="M517 659 C503 624 487 585 472 544 C400 364 314 139 313 95 C311 24 374 0 408 0 C438 0 523 87 570 160 C573 171 565 179 556 175 C517 116 432 31 416 31 C407 31 403 40 404 56 C405 91 547 448 599 571 C655 702 647 661 552 745 C547 738 522 672 517 659 L517 659 Z M224 406 C247 204 119 -161 11 -172 C11 -164 12 -156 13 -147 C15 -138 23 -112 36 -72 C45 -48 131 203 224 406 L224 406 Z M18 -203 C169 -183 284 256 242 443 L242 444 L309 444 C320 452 327 467 337 490 L265 490 C317 592 369 668 408 668 C411 668 414 668 417 667 C414 654 409 640 404 627 C387 578 378 572 373 554 C368 538 376 524 405 495 C449 545 470 587 472 621 C474 642 462 657 442 679 C437 688 430 695 422 702 L422 702 L422 702 C398 728 372 747 343 746 C286 743 214 630 148 490 L97 490 C87 487 85 476 68 444 L126 444 C38 250 -38 28 -52 -14 C-68 -60 -79 -94 -79 -108 C-80 -171 -27 -205 18 -203 L18 -203 Z " />
</font>
</svg>
