<svg id="Layer_1" data-name="Layer 1" xmlns="http://www.w3.org/2000/svg" viewBox="0 0 252 217"><defs><style>.cls-1{fill:none;stroke:#c69c6d;stroke-miterlimit:10;stroke-width:9px;}</style></defs><title>Pumpkin</title><path class="cls-1" d="M561.5,411.5v-16c.31-1.45.72-2.89.91-4.35C565,370.9,572.79,353,587.18,338.34c19.48-19.78,43.6-25.79,70.52-22.32,6.16.79,12.23,2.29,18.55,3.51,2-14.31,2.5-28.76,14.25-39h2l17.1,6.37c-13.69,13-16.06,19.33-12.61,32.49,11.37,0,22.74-1.05,33.84.2,33.87,3.8,57.07,22,68.54,54.25,2.47,7,3.46,14.45,5.13,21.69v16c-.31,1.61-.69,3.21-.94,4.84-4.88,31.73-20.64,55.26-51.41,66.91C745,486,737.07,486.8,729.5,488.5h-16c-9.76-2-19.51-4-29.28-5.83a10.83,10.83,0,0,0-3.94.33c-16.49,3.14-33.09,4.28-49.68,1.46C599,479.11,576.51,462.3,566,431.3,563.88,424.92,563,418.11,561.5,411.5Z" transform="translate(-557 -276)"/></svg>